/* XPM */
static char *result[] = {
/* columns rows colors chars-per-pixel */
"64 64 140 2 ",
"   c #0E0A09",
".  c #110907",
"X  c #180F0D",
"o  c #16100D",
"O  c #1A110E",
"+  c #171717",
"@  c #1D1412",
"#  c #1D1817",
"$  c #15191A",
"%  c #1B1B1B",
"&  c #2A0F07",
"*  c #260E08",
"=  c #25110C",
"-  c #2D120A",
";  c #371004",
":  c #36160E",
">  c #3A170D",
",  c #3E190E",
"<  c #221613",
"1  c #291612",
"2  c #251916",
"3  c #2A1915",
"4  c #251A18",
"5  c #2C1D19",
"6  c #321B15",
"7  c #3A1A12",
"8  c #311E1B",
"9  c #2F201C",
"0  c #33221E",
"q  c #131C20",
"w  c #172227",
"e  c #182328",
"r  c #1E292E",
"t  c #222222",
"y  c #2C2826",
"u  c #2B2B2B",
"i  c #362620",
"p  c #3C2722",
"a  c #3D2924",
"s  c #322C2B",
"d  c #3D2F2A",
"f  c #37302E",
"g  c #3F302B",
"h  c #232D32",
"j  c #2A2F33",
"k  c #263137",
"l  c #2F3236",
"z  c #273338",
"x  c #2B363B",
"c  c #2D383E",
"v  c #313131",
"b  c #393737",
"n  c #3B3837",
"m  c #33373B",
"M  c #383738",
"N  c #353A3D",
"B  c #3A3A3A",
"V  c #4A1708",
"C  c #45180C",
"Z  c #4B1909",
"A  c #551806",
"S  c #5C1A06",
"D  c #5A1B09",
"F  c #411C12",
"G  c #641D07",
"H  c #691E07",
"J  c #631E09",
"K  c #681E08",
"L  c #5D200D",
"P  c #542010",
"I  c #66200A",
"U  c #6C210A",
"Y  c #742107",
"T  c #75240B",
"R  c #7A250B",
"E  c #7A280F",
"W  c #662612",
"Q  c #6B2713",
"!  c #7B2B12",
"~  c #412C26",
"^  c #442E28",
"/  c #463129",
"(  c #4C342D",
")  c #4F382F",
"_  c #543126",
"`  c #50362F",
"'  c #523730",
"]  c #553A32",
"[  c #5A3E35",
"{  c #5D4037",
"}  c #5E4138",
"|  c #63453B",
" . c #68473D",
".. c #67483D",
"X. c #69493E",
"o. c #2E3B41",
"O. c #343E43",
"+. c #334046",
"@. c #424242",
"#. c #494949",
"$. c #535454",
"%. c #5D5D5D",
"&. c #6D4C41",
"*. c #704F43",
"=. c #745145",
"-. c #785447",
";. c #7A5648",
":. c #7D584A",
">. c #5F6060",
",. c #616262",
"<. c #842609",
"1. c #892709",
"2. c #84290D",
"3. c #8C2B0D",
"4. c #942E0E",
"5. c #982E0D",
"6. c #9B300F",
"7. c #812C12",
"8. c #8B2E12",
"9. c #942F10",
"0. c #A42F0A",
"q. c #A3310E",
"w. c #AB320D",
"e. c #B2330C",
"r. c #BC360D",
"t. c #BE380F",
"y. c #A13210",
"u. c #AB3511",
"i. c #B33610",
"p. c #B53812",
"a. c #BA3911",
"s. c #C1360C",
"d. c #C3390E",
"f. c #C93B0F",
"g. c #C63D13",
"h. c #CC3D12",
"j. c #D13F12",
"k. c #CF4014",
"l. c #D44114",
"z. c #DA4415",
/* pixels */
"i } &.&.X.&.&.&.i X.;.;.;.;.-.;.;.| i } } [ [ } } } / i } [ ' i ^ [ [ [ } ^ i [ { { { { { } ~ ( ;.' ] ;.;.;.X.0 [ { { { { { { { ",
"/ / &.&.&.&.&.| a *.;.;.;.;.-.;.*.a 5 } } } } } [ [ i ^ ( p 5 ~ i 0 ( [ } ( p [ { { { { { } ~ ( ;...-.;.;.;.&.0 { { { { { { { { ",
"X.' X.&.&.&.*.) ) :.;.;.;.;.;.*./ / i [ [ } } [ } [ 4 5 8 ^ } &...) 5 i / [ i ( { { [ } { } ( d =.;.-.;.;.;.X.0 [ { { { { { { { ",
"&.&.&.&.*.*.} 0 a } *.;.-.-.;.-.&.&.i [ } } } } ) a a [ *.*.*.| &.-.&.' i 0 4 ) } { } } { { { 0 ..;.;.| { X.X.0 { { { { { { { { ",
"a a a a a a # 9 0 0 0 { *.*.*.*.} i # i 8 0 5 8 9 5 ) &.} &.[ ' ] &.[ &.| 2 @ a ] ] [ ] ' [ [ i X.-.{ O @ @ i @ 0 ' ] ] ' ] [ ] ",
"( / ( / / / ( { } { 9 d 0 i 9 9 ^ ' [ ^ @ 5 X 2 } } i 5 p i 6 * 1 i p p i ^ } ^ < # 0 9 9 < p 2 ( d a # 0 0 8 8 < < < < < @ @ < ",
"} } } } } } } { } { 9 } X...d { &.&.*.' < 5 ' &.&.&.} i X Z 1.S 1.K : @ 8 &.=.&.} i ) | &.) ^ d ~ } ..9 0 ~ ~ ~ p p p p 8 < i p ",
"{ { { { { { { { { { 9 ..*.X.} ..&.&.&.5 < ' -.*.} } ^ 7 S e.s.G 0.r.0.J 7 a ^ ' =.| i a ..&.&.&.*.X.X.a 0 ~ ~ F p p p ~ 5 < ~ p ",
"[ { { { { { { { { { 9 ..&.&.X.&.&.&.| 4 ' ;.*.' p 6 & 4.s.s.r.G 0.s.s.s.G * 6 p } ;. .( a &.) a  .&.&.] 3 p ^ p ~ p p p 7 2 p p ",
"0 0 { { { { { { { { 9 ..&.&.&.&.&. .p ' -.*.( p 8 Y A e.s.r.r.S 0.s.s.s.G 1.Y 6 ^  .} [ ' i ^ } &.&.&.] 3 p p p ~ p p p p p p ~ ",
"( 0 ] { { { { { { { 9 } &.&.&.&.| i ( -.;.] p 8 Y e.S e.r.s.r.G 0.s.s.s.H 5.s.Y 8 ^ &.*.&.5 ` *.&.&.&.] 4 p p p p p p ~ p p p p ",
"} { { { { { { { { ) 9 } &.&.&...p 4 5 ' &.( 8 T r.r.A e.f.d.r.S 0.s.r.s.H 5.s.s.T 7 ' } i 3 8 [ &.&.&.' 3 p p p p p p p p p p p ",
"{ { { { } { { { { { 9 | &.&.&.{ 0 | ( 3 3 6 T s.s.e.G e.z.j.g.J e.s.r.s.H 5.s.s.r.J < 2 ~ [ | 8 | &.*.[ 3 p p p p p p p p p p p ",
"{ ~ ] { } } } } { { 9 ..*.*.{ 9  .-. .^ @ ; e.s.s.e.S r.z.z.j.I e.s.s.s.H 5.s.s.s.Y . p &.;.*.^ ^  .&.&.p 8 p p p ~ p p p ~ p ~ ",
"9 a a ] ~ ~ ~ ~ a a @ / ( ( i / -. .^ 8 Z A e.d.r.r.J d.z.j.j.U i.d.f.d.Y 5.s.s.s.Y J F p | ;.*.i ' *.&.p 8 p p 8 8 p p p p p p ",
") ../ 0 / O 4 4 3 4 2 # 9 o a *.*.( p F 1.G e.s.r.d.I g.j.j.z.U i.h.h.j.Y 5.s.f.d.Y 1.Y 8 ( *.=.] y [ } 8 3 p 1 ^ ^ 8 8 p 0 p F ",
";.;.=.X.=.4 a a p p p ^ p 3 } ;. .p 3 1.e.A r.s.d.g.I g.j.j.z.U a.z.l.z.T q.l.z.j.Y 1.w.> a | { &.8 < p 0 0 p &.*.*.4 5 0 0 9 0 ",
"-.;.;.;...9 0 a p p p p 8 8 *.-.} p V e.e.S s.j.g.j.I g.z.z.j.U a.z.z.z.T w.z.z.j.R 1.d.Y 8 | X.-.( 0 =.;.;.-.;.;.=.0 &.&.&.&.&.",
";.;.;.;.^ 6 ~ ~ p 5 p i 4 ^ &.] [ 6 <.s.e.S d.z.l.j.I g.z.z.l.K a.z.z.z.E u.z.l.z.1.1.j.0., ( ;.;.} < } ;.;.;.;.-.=.i } &.&.&.&.",
";.-.-.;.~ 6 0 ~ p 3 < < X } [ { ^ C e.s.i.S g.z.z.j.I g.z.l.z.Q a.k.l.z.T u.z.f.z.1.5.j.s.D ~ =.&.| 0 [ ;.;.-.-.;.=.i &.&.&.&.&.",
";.;.-.;.~ 8 p p p p p 3 < | ;.*.8 <.d.d.d.J k.z.z.j.W g.j.j.j.U a.l.l.l.T w.h.l.z.2.5.l.s.1.6 | | | 0 [ ;.;.-.;.;.*.y &.&.&.&.&.",
"-.-.;.;.a 8 ~ ~ p p p p < [ *.&.8 3.j.h.g.K k.z.z.l.I g.j.j.z.U a.l.h.z.E u.l.l.z.2.y.z.l.w.: ] &.| 0 [ ;.;.-.&.*.' ^ &.&.&.&.&.",
";.-.-.-.p 6 p p p ~ p p X 4 8 8 X 9.z.z.g.K k.z.j.j.V W a.z.j.T a.z.j.z.E u.z.z.z.3.6.z.z.r.& 1 4 4 @ } ;.;.;.&.^ 4 ( *.&.&.&.&.",
";.;.&.[ 3 p p ~ p p p p @ ' ' ( 4 5.z.z.g.U g.h.h.I # O.' 9.8.C E 4.3.3.Z T 5.8.9.D I 9.3.R = ~ ' ' 4 [ :.;.;.;.*.a / &.&.&.&.&.",
";.;.] a 4 p p p p p p p < }  .*.8 5.j.z.g.I j.d.W $ h o.o.M O./ n B B B B B B B N B B B B m < ( *.*.0 { :.;.;.;.:.` ` *.&.&.*.&.",
"( / d o . p p p 8 3 3 3 @ }  .' 1 3.j.z.g.I j.y.8 q l l o.O.x x B +.c x x B O.o.x m +.N x k < 0 { -.a i ( ( ( / ( 9 y ^ ~ ^ ^ ^ ",
"i i i i 4 < 5 @ p ^ ~ p 4 } ;.] 3 9.j.z.g.K h.l.y.* r o.j 8 1 @ 5 6 - 1 @ 1 6 1 3 = 1 6 3 3 O ~ ..;.( 9 ~ ~ d ~ ^ ^ ^ ^ 0 0 [ ] ",
"' ` ` ' ( i @ p [ } } [ 3 | ;.] 3 5.j.z.g.W l.l.j.6.* t Q r.r.G q.d.a.g.H 4.d.t.d.Y 1.d.s.w.: ~ *.;./ / } } } } [ [ } } / / :.;.",
"( ( ' ( ' p p } { { } ] 4 | ;.] 3 9.z.z.g.U l.l.z.j.D 3.h.j.h.U a.z.z.z.T u.z.j.z.2.6.z.l.g.> ] ;.*./ ~ } { { { { { { } ~ ' ;.;.",
"( ( ( ( ( p p } { { } ] 4 | ;.] 4 9.z.j.d.K l.l.z.l.I g.z.j.h.U a.z.z.j.T u.z.j.l.2.6.z.l.k.: | X.{ d / } { { { { { { ] 0 =.;.;.",
"( ' ( ' ( p i } { { { ] i &.*.&.8 4.j.j.a.K j.l.z.l.W g.z.j.j.U a.z.j.j.T u.z.j.l.2.6.z.k.f.: | X.../ / } { { { { { { ] 0 =.;.;.",
"( ( ( ( ' 0 8 [ { { { ] i [ ' *.8 4.z.z.g.J k.l.h.j.J g.z.z.h.U a.z.l.l.E u.z.l.l.2.6.z.f.g.: | ;.;./ / } { { { { { { [ 0 *.;.;.",
"( ( ` ( ] 0 @ / { { { ] 0 { { { 3 4.z.z.k.I k.z.k.k.L k.z.l.f.U a.z.z.z.E u.z.l.z.2.6.z.l.k.: } ;.;./ / [ [ | | [ [ [ [ i *.;.;.",
"( ( ( ` ) 0 0 0 ] { { ] 9 / ) / < 6.z.l.! 3 8.l.z.k.L k.z.l.f.U a.z.z.z.T u.z.z.z.2.6.z.l.g.: / { ( 9 / | } [ [ [ | [ ~ ) ;.;.;.",
"( ` ( ( ) 0 0 ) ) { { ] O 9 0 9 O 4.l.T o q O 3.l.l.I d.z.z.l.U a.z.z.z.E u.z.z.z.8.6.z.l.g.& < 9 3 o a ) [ [ } [ [ | i } ;.;.-.",
"` ( ` ` ` a 0 { | { { { 9 ..X.X.9 4.4.+ C P > # 6.l.I k.z.z.z.U a.z.l.z.T u.z.l.z.2.6.z.z.k.: { *.*.d 5 a } } } | ] / 5 } ;.;.;.",
"^ ^ ^ ^ / 0 0 { ] ] ] ) 0 X.:...9 4.R $ L L P $ 3.l.I k.z.z.l.U p.k.l.z.T u.z.z.z.2.6.z.l.k.> } ;.;./   5 9 8 8 0 i a a ^ d ^ d ",
"8 8 8 8 9 9 9 2 3 0 0 9 9 ;.;.) 3 6.9.t 9 @ f d q.l.L k.l.z.l.U t.l.z.z.T u.l.z.z.2.6.z.l.k.: / X.;./ 1 0 0 8 < i | &.&.} ] [ ] ",
"| &.&.&.X.X.X./ ) :.=.X.a X.X.) 3 9.l.7.4 + 0 3.l.k.I t.f.l.z.U a.l.z.z.T u.l.l.z.2.6.z.l.k.: 0 ] ;./ 5 p ~ ~ 3 ( *.&.&.&.&.&. .",
"&.&.&.&.=.X.X./ ) :.:.X.a X.X.| 5 9.z.l.u.A 0.l.l.k.L k.k.z.l.U a.z.l.z.R u.l.f.z.2.6.z.z.a.: a { :./ 5 a p p 1 / &.&.&.&.&.| a ",
"&.&.&.&.&.&.&.^ { =.-.*.i { ..X.0 4.z.z.h.I l.l.f.k.I t.l.l.l.U a.z.z.z.T u.z.l.z.2.6.z.l.k.: ~ *.=.^ 8 ~ p ~ 3 / =.&.&.&.&.) / ",
"&.&.&.&.&.&.&.a } -.-.*.i *.;.X.9 4.z.z.h.I l.z.k.k.I k.z.l.z.U a.z.z.z.T u.z.z.z.2.6.z.l.t.: { &.] ~ 3 p p p 5 [ &.&.&.X.&.&...",
"&.&.&.&.&.&.[ i -.-.;.*.i ;.:.{ 3 4.z.z.k.I k.l.k.k.I t.z.z.l.U a.z.l.l.R u.z.z.z.2.6.z.f.t.: } ;.} ~ 8 ~ p 0 8 X.&.&.&.&.&.&.&.",
"&.&.&.&.&.&.} p -.;.;.*.s X.;.{ 3 4.z.z.g.I l.z.l.k.I k.z.l.l.U a.z.l.l.R u.z.z.z.2.6.z.k.k.: } ;.;.^ 3 ~ p 0 9 &.&.&.&.&.&.&.&.",
"&.&.&.&.&.*.} p ;.;.;.&.0 X.=...5 4.l.l.k.I k.l.z.k.I k.z.z.l.U a.z.z.z.R u.z.z.z.2.6.z.z.k.: { *.*.^ 5 a ~ 0 8 &.&.&.&.&.&.&.&.",
"&.&...[ p ^ ] i -.;.*.{ O 2 0 9 O 4.l.l.a.I k.l.l.k.Z W a.z.z.U a.z.z.z.R u.z.z.z.3.6.z.z.k.& 9 5 8 < 8 a a 0 8 &.&.&.&.&.&.&.&.",
"( ^ < 9 ( ^ t 3 / ] 4 < < ( ( ( 1 4.k.l.k.S d.k.l.U # N _ 9.9.Z 2.9.9.6.A T 9.4.6.L U 5.4.2.- 0 ] ] 5 < 3 5 1 < ( ( ( ( ( ( ( ( ",
"2 5 < / } } [ [ ~ a a 0 9 =.:.X.8 4.l.k.k.I k.k.U + h x O.B b b B B B B b B B B B b b b b v # ~ *.;.^ 5 a a a 0 # 0 a # i / / / ",
"~ ~ 2 ^ } [ } } } } } [ 8 =.;.[ 1 4.z.z.k.L l.i.6 e z v z +.o.c B +.c x c N +.c x N +.O.c x @ ~ *.;./ / } } [ a ( [ | i ] &.&.*.",
"p p 1 ^ } } } [ [ } } ] i *.&.^ 1 4.z.z.k.I k.z.6.= r c u 9 1 @ 3 3 3 3 @ 1 5 3 3 @ 1 3 3 = O / -.;./ / } } ] i [ [ } i ] &.&.&.",
"p p < / } } } [ } [ } ] 8 =. .~ 9 4.l.k.t.I k.l.l.6.< 9 W e.r.S q.r.r.r.I 4.t.r.r.U 1.t.r.w.3 { ;.&.^ ^ } } [ [ } [ | i ] &.&.&.",
"~ ~ 1 ^ } [ } } } } } ' 8 *.| ~ 1 5.z.k.k.L k.l.l.l.P 2.k.z.l.U a.z.z.z.T w.z.z.z.R 6.z.z.g.7 } -.| ^ / } [ } } } } [ i ] &.&.&.",
"p ~ 2 ^ [ [ } } { { ` y 3 *.&.p 3 5.z.l.t.I k.l.k.k.I k.l.k.l.U a.z.k.l.T u.z.z.z.2.6.z.l.k.: } ;.;./ ^ } } } [ } } ] i | &.&.&.",
"p p 3 ^ } } [ } { { ` p 5 ' &.' 2 5.z.z.k.W k.z.f.k.I t.l.k.l.U a.z.k.l.T u.z.z.z.2.6.z.l.k.: ] -.;./ ^ } } } [ [ } / a &.&.&.&.",
"~ p 1 ^ } [ } } { { [ ] 8 &.=.[ 3 5.z.l.k.L k.z.l.k.I k.l.l.l.U t.z.l.z.T w.l.z.z.2.6.z.f.d.: ^ *.;./ ^ } } } } } } / a &.&.&.&.",
"p p 1 ^ } } } [ { { [ ] i =.;.&.9 5.z.l.k.I l.z.l.l.I k.z.z.z.U t.z.z.z.R q.l.z.z.1.6.z.l.k.> / *.:.( ^ } [ [ } } } ( i &.&.&.&.",
"~ 0 2 / | | { / 0 ` } [ 5 ( ( ( 9 R a.a.w.P i.p.p.i.P u.p.t.e.L 6.a.a.p.I 3.i.t.t.U 2.t.t.q.- 0 ) ) 9 / } } } { } } ( a &.&.&.&.",
"3 < o 9 0 0 0 @ 2 . 5 i y u u s u f d d d 0 g g d d 0 f d d d s d d d d i f d d d f s d d d u v s s u 0 a 0 a 0 p i 9 2 ^ ~ / / ",
"# + + $ # $ $ % 4 % + + u #.$.$.$.$.$.$.$.>.>.,.>.,.>.>.,.,.>.,.,.,.,.,.,.,.,.,.>.,.>.>.,.%.$.$.$.$.@.t $ + $ $ $ + + + + $ % u ",
"v t e 9 e 9 t t l l y t 9 e y y t t r 9 y B @.@.+.{ @.@.+.{ @.@.@.@.@.@.$.%.,.,.,.,.,.%.#.v y t u l t t t t 9 v j t t t w 9 e t ",
"u t t t t t t t t t w 9 w w 9 w r y t t t % t t e t t t t u u u t t t % t b $.$.$.$.b u e % t u v y t t t t t t t t t t 9 9 w 9 ",
"9 w t t t t t t t t t y v y w 9 u u t t t t t t t t t t t u j u t t t t 9 e y t t t t % t t t t 9 w t t t t t t t t u v u e t w ",
"t t t u u l f e t t 9 e e 9 9 w t t t % t t t y v u t t t % t t t t t t t t v v y t 9 e u u w 9 t t t t t u t t e 9 t u t t t t ",
"t % t u s e 9 t % t w 9 w t t t t t t t t t t t t u t t t t t t % t t t t t t t w 9 e v s u t t t % t t t u l u t t w 9 t t % t "
};
