/* XPM */
static char *_256bb933e964b3fab8b86e32784a4b6FSZpczkGKtyA9ISp[] = {
/* columns rows colors chars-per-pixel */
"64 64 245 2 ",
"   c #1B1B0A",
".  c #251811",
"X  c #3D1E12",
"o  c #301B0D",
"O  c #1E210D",
"+  c #22240E",
"@  c #2C280E",
"#  c #242511",
"$  c #262911",
"%  c #2B2D12",
"&  c #24231B",
"*  c #2A261B",
"=  c #2C2A18",
"-  c #342D1C",
";  c #372816",
":  c #2E3212",
">  c #2F3418",
",  c #323414",
"<  c #3A3515",
"1  c #353B15",
"2  c #3A3C16",
"3  c #35341A",
"4  c #363A19",
"5  c #3C3D1B",
"6  c #3B331B",
"7  c #2B2B23",
"8  c #2A2723",
"9  c #2F3125",
"0  c #333124",
"q  c #353B21",
"w  c #3B3D23",
"e  c #32322A",
"r  c #3C362B",
"t  c #3C3626",
"y  c #353228",
"u  c #4B3B0E",
"i  c #482A14",
"p  c #443B14",
"a  c #423D1C",
"s  c #473819",
"d  c #523C18",
"f  c #463A29",
"g  c #563E28",
"h  c #402F22",
"j  c #431D0F",
"k  c #3A4116",
"l  c #3C431A",
"z  c #3E491C",
"x  c #36411A",
"c  c #3B4422",
"v  c #3E4A23",
"b  c #3C442C",
"n  c #3E4A2B",
"m  c #37432A",
"M  c #3E4732",
"N  c #4B4215",
"B  c #42441C",
"V  c #4A441B",
"C  c #42491D",
"Z  c #4D4A1B",
"A  c #454216",
"S  c #524315",
"D  c #544A16",
"F  c #5B4C16",
"G  c #53431A",
"H  c #544B19",
"J  c #5B4C1A",
"K  c #5B441B",
"L  c #5E531C",
"P  c #5A5117",
"I  c #644A1B",
"U  c #64541A",
"Y  c #6C551C",
"T  c #6D5C1B",
"R  c #645618",
"E  c #745C1C",
"W  c #775B1C",
"Q  c #75621B",
"!  c #7B641C",
"~  c #7B691E",
"^  c #444424",
"/  c #434C23",
"(  c #484729",
")  c #594625",
"_  c #5B4C23",
"`  c #554627",
"'  c #414C34",
"]  c #414D3A",
"[  c #444037",
"{  c #455237",
"}  c #55573B",
"|  c #564834",
" . c #634B2B",
".. c #694A2D",
"X. c #695627",
"o. c #755B27",
"O. c #6D5635",
"+. c #7D6322",
"@. c #7B6528",
"#. c #7F6232",
"$. c #475545",
"%. c #575742",
"&. c #665E4C",
"*. c #5B6453",
"=. c #62694C",
"-. c #6C7556",
";. c #6B6D57",
":. c #7C7C73",
">. c #6F7165",
",. c #82651D",
"<. c #836A1C",
"1. c #8A6C1C",
"2. c #8C731C",
"3. c #87731E",
"4. c #93741C",
"5. c #9A761D",
"6. c #93791E",
"7. c #9B7A1D",
"8. c #936F1D",
"9. c #A27B1E",
"0. c #835B25",
"q. c #825D34",
"w. c #846A23",
"e. c #8C6D22",
"r. c #876829",
"t. c #926D22",
"y. c #956B26",
"u. c #8B7522",
"i. c #947324",
"p. c #9A7424",
"a. c #937B22",
"s. c #9A7B22",
"d. c #9B7629",
"f. c #9C7A2B",
"g. c #94762D",
"h. c #8E643B",
"j. c #876332",
"k. c #966839",
"l. c #927735",
"z. c #A37C24",
"x. c #A27D2B",
"c. c #AA7E26",
"v. c #A67A33",
"b. c #AC7734",
"n. c #937447",
"m. c #A97944",
"M. c #817D70",
"N. c #79836B",
"B. c #9D811F",
"V. c #A8881F",
"C. c #B08D1F",
"Z. c #9C8222",
"A. c #9B8128",
"S. c #9A8636",
"D. c #A48322",
"F. c #A68923",
"G. c #AC8B23",
"H. c #AB832A",
"J. c #AA8528",
"K. c #B28526",
"L. c #B3852A",
"P. c #B3892C",
"I. c #B88D28",
"U. c #AC9127",
"Y. c #B59324",
"T. c #BA9524",
"R. c #BD9925",
"E. c #BE932B",
"W. c #B8962B",
"Q. c #A98434",
"!. c #B48934",
"~. c #B89336",
"^. c #BEA035",
"/. c #C39C24",
"(. c #C1952E",
"). c #C49B2A",
"_. c #CA9A28",
"`. c #C39533",
"'. c #C89936",
"]. c #D19C2F",
"[. c #CCA325",
"{. c #CBA32B",
"}. c #CAA628",
"|. c #D2A52D",
" X c #D5AA2D",
".X c #D8AC2C",
"XX c #D9B12C",
"oX c #CDA436",
"OX c #D4A533",
"+X c #D4AA33",
"@X c #DBAC32",
"#X c #DAAB3B",
"$X c #D7A538",
"%X c #DDB335",
"&X c #E2AE32",
"*X c #E8B637",
"=X c #F0BC37",
"-X c #E0B52D",
";X c #E9C23A",
":X c #9C8E5A",
">X c #B58F49",
",X c #898975",
"<X c #9A9776",
"1X c #968D75",
"2X c #B6A265",
"3X c #CB974B",
"4X c #D5B04A",
"5X c #E8B742",
"6X c #E6AE42",
"7X c #C8B472",
"8X c #E1BB68",
"9X c #EAC759",
"0X c #E7CC71",
"qX c #959685",
"wX c #99968C",
"eX c #9EA491",
"rX c #A7A897",
"tX c #B0A98F",
"yX c #AEADA3",
"uX c #B6BAAD",
"iX c #A39A8F",
"pX c #CAB689",
"aX c #D0BA8B",
"sX c #CDBCA2",
"dX c #BFC3B5",
"fX c #D9CA92",
"gX c #E9D38F",
"hX c #C5C7BD",
"jX c #D1CAB6",
"kX c #D3CDAF",
"lX c #EAD9AE",
"zX c #D5D5CB",
"xX c #D8D9D4",
"cX c #CECFC6",
"vX c #E3DECE",
"bX c #DEE1DF",
"nX c #E6E5DD",
"mX c #F4EDD8",
"MX c #F8F2DC",
"NX c #F1E8CA",
"BX c #E9E9E5",
"VX c #F3F2EC",
"CX c #F8F4E4",
"ZX c #F6F6F6",
"AX c #F2EFE3",
/* pixels */
"ZXZXZXZXZXZXZXZXZXZXZXZXZXZXZXZXZXZXZXZXZXZXZXZXZXZXZXZXZXZXZXZXZXZXZXZXZXZXZXZXZXZXZXZXZXZXZXZXZXZXZXZXZXZXZXZXZXZXZXZXZXZXZXZX",
"ZXZXZXZXZXZXZXZXZXZXZXZXZXZXZXZXZXZXZXZXZXZXZXZXZXZXZXZXZXZXZXZXZXZXZXZXZXZXZXZXZXZXZXZXZXZXZXZXZXZXZXZXZXZXZXZXZXZXZXZXZXZXZXZX",
"ZXZXZXZXZXZXZXZXZXZXZXZXZXZXZXZXZXZXZXZXZXZXZXZXZXZXZXcXyXqX<X<X<X<XtXkXAXZXZXZXZXZXZXZXZXZXZXZXZXZXZXZXZXZXZXZXZXZXZXZXZXZXZXZX",
"ZXZXZXZXZXZXZXZXZXZXZXZXZXZXZXZXZXZXZXZXZXZXZXZXBXeXM x A Z D L T T ~ ~ ~ :XjXZXZXZXZXZXZXZXZXZXZXZXZXZXZXZXZXZXZXZXZXZXZXZXZXZX",
"ZXZXZXZXZXZXZXZXZXZXZXZXZXZXZXZXZXZXZXZXZXZXZXuX$.m q 4 C D F T R E <.<.u.~ u.2XnXVXZXZXZXZXZXZXZXZXZXZXZXZXZXZXZXZXZXZXZXZXZXZX",
"ZXZXZXZXZXZXZXZXZXZXZXZXZXZXZXZXZXZXZXZXZXbXN.$.M m c k Z D F T ! <.1.1.<.2.a.A.S.fXVXZXZXZXZXZXZXZXZXZXZXZXZXZXZXZXZXZXZXZXZXZX",
"ZXZXZXZXBXiXqXsXZXZXZXZXZXZXZXZXZXZXZXZXxX*.$.M M m x z H F R T Q ,.1.1.4.5.s.s.B.B.2XAXZXZXZXZXZXZXZXZXZXZXZXZXZXZXZXZXZXZXZXZX",
"ZXZXZXBX&.f g ..sXZXZXZXZXZXZXZXZXZXZXhX$.$.$.$.M m m z Z L R E Q ,.1.8.5.5.9.D.V.B.U.2XvXZXZXZXZXZXZXZXZXZXZXZXZXZXZXZXZXZXZXZX",
"ZXZXZX:.r r t s m.mXZXZXZXZXZXZXZXZXzXM M $.$.M b c c k H P R T ,.<.8.4.4.5.5.7.V.V.C.C.^.AXZXZXZXZXZXZXZXZXZXZXZXZXZXZXZXZXZXZX",
"ZXZXxXf r r r f k.aXZXZXZXZXZXZXZXZX>.m M M $.M b b 4 B P R T Q ! 1.4.4.5.5.7.V.V.V.V.Y.Y.fXZXZXZXZXZXZXZXZXZXZXZXZXZXZXZXZXZXZX",
"ZXZXyXg r e r f #.>XmXZXZXZXZXZXZXeXv c n n $.M M b v Z H R Q ! <.2.4.4.4.2.4.4.7.B.7.V.C.^.NXZXZXZXZXZXZXZXZXZXZXZXZXxXZXZXZXZX",
"ZXZXyX..r e r f O.!.pXZXZXZXZXZXzXv x c n { $.n n c C L T Q Q Q <.4.5.5.4.2.1.<.<.6.D.V.C.Y.7XVXZXZXZXZXZXZXZXZXZXbX:XQ.kXZXZXZX",
"ZXZXhXX.) - t ` j.v.l.cXZXZXZXZX-.x x x / ' ' n n ^ a J I E <.6.4.2.5.9.5.8.,.W <.4.4.<.~ 2.A.sXBXZXZXZXZXZXZXZXbX&.#.y.>XVXZXZX",
"ZXZXVX,X%.f ` ) X.o.` e wXZXZXhXc c x m n ' { [ w < s s S S U W 5.7.9.9.9.4.1.1.4.4.,.W <.Q I G O.rXZXZXZXZXZXxX} ) #.o.j.lXZXZX",
"ZXZXZXZXBXyX:.f & 7 e e 7 ;.bX>.v v v n { n c , ; p d N S S S u R 8.9.9.9.9.5.8.1.,.1.w.Y K S _ K G wXZXZXZXVX;.g ) #...q.pXZXZX",
"ZXZXZXZXZXZXZXZXxXwXe e e 9 q c m c v n n v % % p < A D R R F N u F 4.V.c.9.5.8.t.t.r.I S E w.a.w.X.O.VXZXBX;.6 )  .#.....2XZXZX",
"ZXZXZXZXZXZXZXZXZXZXzXM 9 9 0 4 c c n v x : $ 4 , , 2 D P R P N p s U d.D.a.z.t.d.p.,.R w.D.F.W.W.F.n.VXBX*.3 f ` ` r.X.E >XZXZX",
"ZXZXZXZXZXZXZXZXZXZXZXxXM 9 > 1 x v c x 3 > , , % : : u D F D 2 < < < @.d.g.H.d.x.1.! 3.6.Z.D.W.W.U.g.,X( c f t r y g j.d.pXZXZX",
"ZXZXZXZXZXZXZXZXZXZXZXZXdX> 3 1 z c x 1 > : % % $ % @ < N u @ $ # % < F @.w.D.x.i.<.! Q ~ ~ 2.Z.U.U.Z.@.o.O. .%.&.>.:.wXjXVXZXZX",
"ZXZXZXZXZXZXZXZXZXZXZXZXBX^ x x v z k 1 : : $ # $ % 2 S F u O O # # $ < G ! d.p.i.<.T P R T Q 3.A.Z.F.A.@.n.jXVXZXZXZXZXZXZXZXZX",
"ZXZXZXZXZXZXZXZXZXZXZXZXuXz z z v C 1 , % $ # $ - 3 G X.+.E s + # $ $ : p o.p.t.w.Q F S F T W <.3.u.B.D.:XnXZXZXZXZXZXZXZXZXZXZX",
"ZXZXZXZXZXZXZXZXZXZXZXZX-.z v / / C 5 , % % % % ; - - i i K I @ $ $ % : p W 8.p.e.T p G Y ,.6.s.<.<.4.7XVXZXZXZXZXZXZXZXZXZXZXZX",
"ZXZXZXZXZXZXZXZXZXZXZXBXz z / { / ^ 2 < , % 3 - y r X X . X ..o $ % % , G ,.z.H.e.s 6 s g i g o.Y <.2.aXZXZXZXZXZXZXZXZXZXZXZXZX",
"ZXZXZXZXZXZXZXZXZXZXZXuXz z / / C V B 5 6 , 6 3 0 y ; X   i n.; ; , , < Y t.L.!.w.s f f j o o m.k.y.5.4XZXZXZXZXZXZXZXZXZXZXZXZX",
"ZXZXZXZXZXZXZXZXZXZXZXwXz z / / / / ^ B 6 , , , < 6 s i i I o.; 4 q q B W p.J.I.t.s r r j o X m.3Xb.c.&XMXZXZXZXZXZXZXZXZXZXZXZX",
"ZXZXZXZXZXZXZXZXZXZXZX-.z C z / / / ^ ( U F p % , s g Y ,.0.d 6 q w ^ X.! e.z.I.P.d 6 f X o j k.b.c.(.].lXZXZXZXZXZXZXZXZXZXZXZX",
"ZXZXZXZXZXZXZXZXZXZXZX} z C / C Z C B V o.<.e.E F S d I K N a 5 w c Z R Q ,.1.s.K.c.K s g I 0.y.L.c.c.].8XZXZXZXZXZXZXZXZXZXZXZX",
"ZXZXZXZXZXZXZXZXZXZXVX/ C C C C C C B B J ! 4.4.,.! E I G V 4 w b M c L ! e.i.5.7.G.K.i.I I 0.5.c.b.c.'.&XMXZXZXZXZXZXZXZXZXZXZX",
"ZXZXZXZXZXZXZXZXZXZXbXz z z C C C C V ^ V X.w.t.,.W Y K V w m b ' ' / X.w.y.g.f.x.c.I.).(.9.y.c.c.c.K._.&XlXZXZXZXZXZXZXZXZXZXZX",
"ZXZXZXZXZXZXZXZXZXZXjXz z z C A Z V B ^ / _ o.o.X._ a , 3 c c m w w ^ X.#.e.f.v.v.!.3X`.].(.(.L.(.c._.].&XgXZXZXZXZXZXZXZXZXZXZX",
"ZXZXZXZXZXZXZXZXZXZXyXz z z z C C C ^ ^ ^ ( ` V < < % + 4 4 5 5 4 4 6 _ o.r.f.v.Q.!.3X].'.c.(.(.(.`._.].*X9XZXZXZXZXZXZXZXZXZXZX",
"ZXZXZXZXZXZXZXZXZXZXeXz z z C z B B a ^ w 5 4 , , @   $ , , , , , < < G E w.i.f.c.v.L.`.].e.k.`.'.'.6X*X=X5XVXZXZXZXZXZXZXZXZXZX",
"ZXZXZXZXZXZXZXZXZXZXqXz C l B B A 2 2 2 3 < , $ +   $ 3 % . O # $ % , < I W e.p.z.c.!.K.P.Y U z.~.oX6X6X*X=XmXZXZXZXZXZXZXZXZXZX",
"ZXZXZXZXZXZXZXZXZXZX,Xz z l k 2 2 1 , , % $     + 3 c 5 5 3 , % % = + ; p I E w.t.p.r.u W R p <.J.`.$X6X*X=XNXZXZXZXZXZXZXZXZXZX",
"ZXZXZXZXZXZXZXZXZXZXN.C C k l 2 1 , % $   $ 3 5 f l B a 5 5 4 4 6 < % O     o d +.,.0.y.K.L.S N ! z.`.OX*X*XNXZXZXZXZXZXZXZXZXZX",
"ZXZXZXZXZXZXZXZXZXZX-.C C B 2 2 1 , % % 5 ^ B c l a 5 5 a a 5 5 V p F U Y Y +.8.z.D.L.`.].OX(.F p Q c.)..X*XMXZXZXZXZXZXZXZXZXZX",
"ZXZXZXZXZXZXZXZXZXZX=.C C k l k 1 2 1 B V B 5 2 2 2 c a 5 ^ _ X.o.w.v.c.z.p.t.4.H.P.E.$X$X].@X(.u p i.I.|.&XCXZXZXZXZXZXZXZXZXZX",
"ZXZXZXZXZXZXZXZXZXZX=.C z A B k x l 5 C B < , < 4 5 c 5 5 ^ L @.r.H.'.I.L.c.i.t.!.`.'.$X&X&X$X&X(.u ! W.{.%XCXZXZXZXZXZXZXZXZXZX",
"ZXZXZXZXZXZXZXZXZXVXN.k k C z k l l l V 2 , @ = , 4 2 x c ^ _ X.@.~.'.E.P.H.d.g.~.'.'.$X$X&X X.X=X9.4.T.|.*XCXZXZXZXZXZXZXZXZXZX",
"ZXZXZXZXZXZXZXZXZXCXN.k z k z z C l l l 5 5 % & * * - 4 5 x / X.@.P.'.I.P.b.d.g.~.'.4X6X#X$X|.|.-X.XK.{..X*XMXZXZXZXZXZXZXZXZXZX",
"ZXZXZXZXZXZXZXZXZXZXqXx k k k k l x C k l B < * & 8 7 & # = q ^ X.g.~.W.P.J.f.f.`.oX#X#X#X+X{.J.[.@X). XXX;XMXZXZXZXZXZXZXZXZXZX",
"ZXZXZXZXZXZXZXZXZXZXrXx k k k k l k k l l l 2 3 * 8 9 8 7 7 & . > ` l.S.f.f.g.Q.>X4X4XoX].`.c.i._.XXoX%X=X;XMXZXZXZXZXZXZXZXZXZX",
"ZXZXZXZXZXZXZXZXZXZXdX1 x k x k z k C l x B k 4 6 - 7 . 8 7 7 8 e * . = s g ) O.q.j.j.r.0.y.V..X.X+X@X%XXX;XCXZXZXZXZXZXZXZXZXZX",
"ZXZXZXZXZXZXZXZXZXZXbXx k k k k k k k k l C l l B `  .` - e 8 7 e e e 8 8 8 - o * i g 0.b.c./.XXXX|. X}.XX9XZXZXZXZXZXZXZXZXZXZX",
"ZXZXZXZXZXZXZXZXZXZXZX} : k k k k k k k l l l k k 2 _ q.k.q. .g f | f f g .. . .O.k.m.b.b.(.[.XXXX}.+X XXX0XZXZXZXZXZXZXZXZXZXZX",
"ZXZXZXZXZXZXZXZXZXZXZXdXx 1 1 k k k k k 2 k k 2 1 1 < B ) O.j.h.h.h.h.h.h.n.m.k.m.m.!.~.)._.[..X}.oX X X%XgXZXZXZXZXZXZXZXZXZXZX",
"ZXZXZXZXZXZXZXZXZXZXZXZXeX1 k k k k k k 1 k x 1 1 1 1 1 3 3 k _ o.q.j.k.k.k.k.b.b.!.P.W././.[..X}.{. X+X5XCXZXZXZXZXZXZXZXZXZXZX",
"ZXZXZXZXZXZXZXZXZXZXZXZXVX=.: 1 k 1 k k k k 1 1 1 , > , 1 1 1 1 : 5 F J I E ,.6.K.Y.W.R././.}.}.{.}.+XXX0XZXZXZXZXZXZXZXZXZXZXZX",
"ZXZXZXZXZXZXZXZXZXZXZXZXZXBX' 1 1 k k k k 1 , , 1 , : 1 : : : : : < A D P T ~ Z.V.U.C.Y.R./.}.}.R.+X+XXXlXVXZXZXZXZXZXZXZXZXZXZX",
"ZXZXZXZXZXZXZXZXZXZXZXZXZXZXzX/ 1 x k k 1 k 1 1 , , : : : : : : % , k A P R ~ 6.B.V.Y.Y.Y.R.}.[.+X|.XX4XMXZXZXZXZXZXZXZXZXZXZXZX",
"ZXZXZXZXZXZXZXZXZXZXZXZXZXZXZXcX/ 1 k k k k 2 1 : 1 : : : : : % % : , p D R ! 2.B.B.C.C.C.R.[.}.+X%X&XgXZXZXZXZXZXZXZXZXZXZXZXZX",
"ZXZXZXZXZXZXZXZXZXZXZXZXZXZXZXZXxX( 1 k k k k 2 1 : 1 : : : : % $ $ , 1 N L ! 2.B.V.C.C.T./._.OX%X*X*XMXZXZXZXZXZXZXZXZXZXZXZXZX",
"ZXZXZXZXZXZXZXZXZXZXZXZXZXZXZXZXZXhX4 x k k k l k 1 1 1 < : : % : : < A D T <.6.B.V.Y.T.[._.{.+X#X&X0XZXZXZXZXZXZXZXZXZXZXZXZXZX",
"ZXZXZXZXZXZXZXZXZXZXZXZXZXZXZXZXZXZXrX1 1 2 A l A k k 2 2 1 2 V D D F R E 3.7.C.Y.R././._.|.OX+X%X%XmXZXZXZXZXZXZXZXZXZXZXZXZXZX",
"ZXZXZXZXZXZXZXZXZXZXZXZXZXZXZXZXZXZXZX,X1 1 k x l l l l l V R ! <.<.<.<.4.z.Y.)._.|./.[.|.{.OX|.oXlXZXZXZXZXZXZXZXZXZXZXZXZXZXZX",
"ZXZXZXZXZXZXZXZXZXZXZXZXZXZXZXZXZXZXZXZXqX1 1 x k l l l l Z Q u.s.a.a.i.D.G.E.).}.[._..XOX).{.{.fXZXZXZXZXZXZXZXZXZXZXZXZXZXZXZX",
"ZXZXZXZXZXZXZXZXZXZXZXZXZXZXZXZXZXZXZXZXZXqX1 1 1 x x x 4 B L w.a.a.u.u.Z.F.U.R.{././.{./.).W.fXZXZXZXZXZXZXZXZXZXZXZXZXZXZXZXZX",
"ZXZXZXZXZXZXZXZXZXZXZXZXZXZXZXZXZXZXZXZXZXZXN.$ , , , , 1 2 B R +.~ ~ +.u.Z.F.W.R./././.R.Y.7XZXZXZXZXZXZXZXZXZXZXZXZXZXZXZXZXZX",
"ZXZXZXZXZXZXZXZXZXZXZXZXZXZXZXZXZXZXZXZXZXZXZXqX> : > > : : 4 H L R U T ~ 6.D.Y.R.Y.Y.U.U.fXZXZXZXZXZXZXZXZXZXZXZXZXZXZXZXZXZXZX",
"ZXZXZXZXZXZXZXZXZXZXZXZXZXZXZXZXZXZXZXZXZXZXZXZXcX;.= $ : % : 3 k A H U Q u.a.D.F.F.Z.>XvXZXZXZXZXZXZXZXZXZXZXZXZXZXZXZXZXZXZXZX",
"ZXZXZXZXZXZXZXZXZXZXZXZXZXZXZXZXZXZXZXZXZXZXZXZXZXZXcX:.b # + # % % : 2 H Q <.2.a.S.kXVXZXZXZXZXZXZXZXZXZXZXZXZXZXZXZXZXZXZXZXZX",
"ZXZXZXZXZXZXZXZXZXZXZXZXZXZXZXZXZXZXZXZXZXZXZXZXZXZXZXZXZXxXuXeX:.;.*.%.} ;.<XtXzXZXVXZXZXZXZXZXZXZXZXZXZXZXZXZXZXZXZXZXZXZXZXZX",
"ZXZXZXZXZXZXZXZXZXZXZXZXZXZXZXZXZXZXZXZXZXZXZXZXZXZXZXZXZXZXZXZXZXZXZXZXZXVXZXZXZXZXZXZXZXZXZXZXZXZXZXZXZXZXZXZXZXZXZXZXZXZXZXZX",
"ZXZXZXZXZXZXZXZXZXZXZXZXZXZXZXZXZXZXZXZXZXZXZXZXZXZXZXZXZXZXZXZXZXZXZXZXZXZXZXZXZXZXZXZXZXZXZXZXZXZXZXZXZXZXZXZXZXZXZXZXZXZXZXZX"
};
