/* XPM */
static char *result[] = {
/* columns rows colors chars-per-pixel */
"64 64 242 2 ",
"   c #1C0D33",
".  c #0C153C",
"X  c #0A173B",
"o  c #181736",
"O  c #080D35",
"+  c #2D132E",
"@  c #38162F",
"#  c #2C0D3C",
"$  c #340E33",
"%  c #2B1636",
"&  c #321331",
"*  c #3D1C32",
"=  c #3B1C3C",
"-  c #361437",
";  c #2F082C",
":  c #382238",
">  c #29223B",
",  c #441B33",
"<  c #471A38",
"1  c #551C39",
"2  c #450E30",
"3  c #4B2136",
"4  c #46233C",
"5  c #49263B",
"6  c #57273B",
"7  c #69293D",
"8  c #0F1741",
"9  c #141E44",
"0  c #271B41",
"q  c #371842",
"w  c #2A0F40",
"e  c #0D2144",
"r  c #1C244C",
"t  c #1B2A4E",
"y  c #152849",
"u  c #1D304C",
"i  c #1C2B55",
"p  c #192855",
"a  c #1C3254",
"s  c #193858",
"d  c #282648",
"f  c #3A2443",
"g  c #392946",
"h  c #3B314B",
"j  c #373647",
"k  c #252958",
"l  c #273657",
"z  c #373957",
"x  c #2E324E",
"c  c #273A63",
"v  c #32326B",
"b  c #461E46",
"n  c #432543",
"m  c #482846",
"M  c #552C43",
"N  c #5C2B47",
"B  c #433344",
"V  c #483549",
"C  c #593449",
"Z  c #442555",
"A  c #4C2C5B",
"S  c #4A2757",
"D  c #532B55",
"F  c #4A3A57",
"G  c #5A3658",
"H  c #692C42",
"J  c #683648",
"K  c #783448",
"L  c #673A56",
"P  c #763952",
"I  c #4C1F62",
"U  c #462A67",
"Y  c #573765",
"T  c #45357A",
"R  c #5A3A74",
"E  c #502F68",
"W  c #663B65",
"Q  c #643D75",
"!  c #28445C",
"~  c #384556",
"^  c #344149",
"/  c #1F4165",
"(  c #2B4966",
")  c #2C516A",
"_  c #375B67",
"`  c #3C4B77",
"'  c #385A77",
"]  c #324F6E",
"[  c #3D657A",
"{  c #396164",
"}  c #484458",
"|  c #554455",
" . c #57414E",
".. c #67485B",
"X. c #764657",
"o. c #70404F",
"O. c #464867",
"+. c #5A4567",
"@. c #475669",
"#. c #595669",
"$. c #494679",
"%. c #57417A",
"&. c #465776",
"*. c #595A73",
"=. c #575674",
"-. c #694567",
";. c #794765",
":. c #665769",
">. c #765968",
",. c #654573",
"<. c #74487A",
"1. c #675B75",
"2. c #775D75",
"3. c #496878",
"4. c #4A737B",
"5. c #5D6676",
"6. c #67646C",
"7. c #6B6777",
"8. c #756779",
"9. c #7A6E74",
"0. c #82384E",
"q. c #844858",
"w. c #94495B",
"e. c #8D4F59",
"r. c #A0555B",
"t. c #865869",
"y. c #865C78",
"u. c #8E4F6C",
"i. c #A55A6E",
"p. c #886577",
"a. c #936A7E",
"s. c #90777D",
"d. c #8B6B72",
"f. c #AB6A73",
"g. c #AB696C",
"h. c #438077",
"j. c #B4807F",
"k. c #C78178",
"l. c #5B3886",
"z. c #4F3990",
"x. c #623A85",
"c. c #3B688A",
"v. c #554B89",
"b. c #684887",
"n. c #7C4F83",
"m. c #684794",
"M. c #795898",
"N. c #76508D",
"B. c #466B83",
"V. c #526981",
"C. c #457687",
"Z. c #577988",
"A. c #4A7998",
"S. c #547E93",
"D. c #4F6A98",
"F. c #737C89",
"G. c #68799A",
"H. c #737191",
"J. c #4E4CA9",
"K. c #7154AB",
"L. c #5378AC",
"P. c #7664A5",
"I. c #517CC3",
"U. c #855989",
"Y. c #815A98",
"T. c #885491",
"R. c #8B6483",
"E. c #876A83",
"W. c #966786",
"Q. c #987784",
"!. c #886997",
"~. c #8F708F",
"^. c #A67287",
"/. c #875CA8",
"(. c #8866A6",
"). c #8C63B8",
"_. c #9566B8",
"`. c #8F72B2",
"'. c #8968C6",
"]. c #986DCC",
"[. c #B07BD1",
"{. c #5A899C",
"}. c #548598",
"|. c #4D8B87",
" X c #64838F",
".X c #768796",
"XX c #728592",
"oX c #5684AB",
"OX c #748CA8",
"+X c #6AA7AF",
"@X c #5DA999",
"#X c #63A0CB",
"$X c #6BB4E3",
"%X c #7094C1",
"&X c #888689",
"*X c #868A99",
"=X c #959192",
"-X c #A78487",
";X c #B6888C",
":X c #BB8D90",
">X c #B8A29B",
",X c #9994A4",
"<X c #938DAB",
"1X c #AE9EA8",
"2X c #99A9AC",
"3X c #95A8B1",
"4X c #A7A8A6",
"5X c #B5AEB1",
"6X c #C7918A",
"7X c #C7A09C",
"8X c #C88BA6",
"9X c #CAB3AD",
"0X c #CFC2BA",
"qX c #BE82C6",
"wX c #86B0C8",
"eX c #B1B7CF",
"rX c #BD98E7",
"tX c #AE8DE1",
"yX c #9FBAE0",
"uX c #9481D4",
"iX c #C0BED8",
"pX c #D1B9DF",
"aX c #C9B1E9",
"sX c #C091EB",
"dX c #BBC3D6",
"fX c #D6CBC7",
"gX c #C8CBD7",
"hX c #D2CDD1",
"jX c #E1DCDB",
"kX c #DADAE8",
"lX c #D9C7F6",
"zX c #D8DBF8",
"xX c #D1CFE9",
"cX c #DFE6F4",
"vX c #DCE2E9",
"bX c #E7E8ED",
"nX c #EBEDF3",
"mX c #E8E8F4",
"MX c #EDF0F3",
"NX c #F5F6FA",
"BX c #FFFFFF",
"VX c #E0D5F0",
/* pixels */
"BXBXBXBXBXBXBXBXBXBXBXBXBXBXBXBXBXBXBXBXBXBXBXBXBXBXBXBXBXBXBXBXBXBXBXBXBXBXBXBXBXBXBXBXBXBXBXBXBXBXBXBXBXBXBXBXBXBXBXBXBXBXBXBX",
"BXBXBXBXBXBXBXBXBXBXBXBXBXBXBXBXBXBXBXBXBXBXBXBXBXBXBXBXBXBXBXBXBXBXBXBXBXBXBXBXBXBXBXBXBXBXBXBXBXBXBXBXBXBXBXBXBXBXBXBXBXBXBXBX",
"BXBXBXBXBXBXBXBXBXBXBXBXBXBXBXBXBXBXBXBXBXBXBXBXBXBXBXBXBXBXBXBXBXBXBXBXBXBXBXBXBXBXBXBXBXBXBXBXBXBXBXBXBXBXBXBXBXBXBXBXBXBXBXBX",
"BXBXBXBXBXBXBXBXBXBXBXBXBXBXBXBXBXBXBXBXBXBXBXBXBXBXBXBXBXBXBXBXBXBXBXBXBXBXBXBXBXBXBXBXBXBXBXBXBXBXBXBXBXBXBXBXBXBXBXBXBXBXBXBX",
"BXBXBXBXBXBXBXBXBXBXBXBXBXBXBXBXBXBXBXBXBXBXBXBXBXBXBXBXBXBXBXBXBXBXBXBXBXBXBXBXBXBXBXBXBXBXBXBXBXBXBXBXBXBXBXBXBXBXBXBXBXBXBXBX",
"BXBXBXBXBXBXBXBXBXBXBXBXBXBXBXBXBXBXBXBXBXBXBXBXBXBXBXBXBXBXBXBXBXBXBXBXBXBXBXBXBXBXBXBXBXBXBXBXBXBXBXBXBXBXBXBXBXBXBXBXBXBXBXBX",
"BXBXBXBXBXBXBXBXBXBXBXBXBXBXBXBXBXBXBXBXBXBXBXBXBXBXBXBXBXBXBXBXBXBXBXBXBXBXBXBXBXBXBXBXBXBXBXBXBXBXBXBXBXBXBXBXBXBXBXBXBXBXBXBX",
"BXBXBXBXBXBXBXBXBXBXBXBXBXBXBXBXBXBXBXBXBXBXBXBXBXBXBXBXBXBXBXBXBXBXBXBXBXBXBXBXBXBXBXBXBXBXBXBXBXBXBXBXBXBXBXBXBXBXBXBXBXBXBXBX",
"BXBXBXBXBXBXBXBXBXBXBXBXBXBXBXBXBXBXBXBXBXBXBXBXBXBXBXBXBXBXBXBXBXBXBXBXBXBXBXBXBXBXBXBXBXBXBXBXBXBXBXBXBXBXBXBXBXBXBXBXBXBXBXBX",
"BXBXBXBXBXBXBXBXBXBXBXBXBXBXBXBXBXBXBXBXBXBXBXBXBXBXBXBXBXBXBXBXBXBXBXBXBXBXBXBXBXBXBXBXBXBXBXBXBXBXBXBXBXBXBXBXBXBXBXBXBXBXBXBX",
"BXBXBXBXBXBXBXBXBXBXBXBXBXBXBXBXBXBXBXBXBXBXBXBXBXBXBXBXBXBXBXBXBXBXBXBXBXBXBXBXBXBXBXBXBXBXBXBXBXBXBXBXBXBXBXBXBXBXBXBXBXBXBXBX",
"BXBXBXBXBXBXBXBXBXBXBXBXBXBXBXBXBXBXBXBXBXBXBXBXBXBXBXBXBXBXBXBXBXBXBXBXBXBXBXBXBXBXBXBXBXBXBXBXBXBXBXBXBXBXBXBXBXBXBXBXBXBXBXBX",
"BXBXBXBXBXBXBXBXBXBXBXBXBXBXBXBXBXBXBXBXBXBXBXBXBXBXBXBXBXBXBXBXBXBXBXBXBXBXBXBXBXBXBXBXBXBXBXBXBXBXBXBXBXBXBXBXBXBXBXBXBXBXBXBX",
"BXBXBXBXBXBXBXBXBXBXBXBXBXBXBXBXBXBXBXBXBXBXBXBXBXBXBXBXBXBXBXBXBXBXBXBXBXBXBXBXBXBXBXBXBXBXBXBXBXBXBXBXBXBXBXBXBXBXBXBXBXBXBXBX",
"BXBXBXBXBXBXBXBXBXBXBXBXBXBXBXBXBXBXBXBXBXBXBXBXBXBXBXBXBXBXBXBXBXBXBXBXBXBXBXBXBXBXBXBXBXBXBXBXBXBXBXBXBXBXBXBXBXBXBXBXBXBXBXBX",
"BXBXBXBXBXBXBXBXBXBXBXBXBXBXBXBXBXBXBXBXBXBXBXBXBXBXBXBXBXBXBXBXBXBXBXBXBXBXBXBXBXBXBXBXBXBXBXBXBXBXBXBXBXBXBXBXBXBXBXBXBXBXBXBX",
"BXBXBXBXBXBXBXBXBXBXBXBXBXBXBXBXBXBXBXBXBXBXBXBXBXBXBXBXBXBXBXBXBXBXBXBXBXBXBXBXBXBXBXBXBXBXBXBXBXBXBXBXBXBXBXBXBXBXBXBXBXBXBXBX",
"BXBXBXBXBXBXBXBXBXBXBXBXBXBXBXBXBXBXBXBXBXBXBXBXBXBXBXBXBXBXBXBXBXBXBXBXBXBXBXBXBXBXBXBXBXBXBXBXBXBXBXBXBXBXBXBXBXBXBXBXBXBXBXBX",
"BXBXBXBXBXBXBXBXBXBXBXBXBXBXBXBXBXBXBXBXBXBXBXBXBXBXBXBXBXBXBXBXBXBXBXBXBXBXBXBXBXBXBXBXBXBXBXBXBXBXBXBXBXBXBXBXBXBXBXBXBXBXBXBX",
"BXBXBXBXBXBXBXBXBXBXBXBXBXBXBXBXBXBXBXBXBXBXBXBXBXBXBXBXBXBXBXBXBXBXBXBXBXBXBXBXBXBXBXBXBXBXBXBXBXBXBXBXBXBXBXBXBXBXBXBXBXBXBXBX",
"BXBXBXBXBXBXBXBXBXBXBXBXBXBXBXBXBXBXBXBXBXBXBXBXBXBXBXBXBXBXBXBXBXBXBXBXBXBXBXBXBXBXBXBXBXBXBXBXBXBXBXBXBXBXBXBXBXBXBXBXBXBXBXBX",
"BXBXBXBXBXBXBXBXBXBXBXBXBXBXBXBXBXBXBXBXBXBXBXBXBXBXBXBXBXBXBXBXBXBXBXBXBXBXBXBXBXBXBXBXBXBXBXBXBXBXBXBXBXBXBXBXBXBXBXBXBXBXBXBX",
"BXBXBXBXBXBXBXBXBXBXBXBXBXBXBXBXBXBXBXBXBXBXBXBXBXBXBXBXBXBXBXBXBXBXBXBXBXBXBXBXBXBXBXBXBXBXBXBXBXBXBXBXBXBXBXBXBXBXBXBXBXBXBXBX",
"BXBXBXBXBXBXBXBXBXBXBXBXBXBXBXBXBXBXBXBXBXBXBXBXBXBXBXBXBXBXBXBXBXBXBXBXBXBXBXBXBXBXBXBXBXBXBXBXBXBXBXBXBXBXBXBXBXBXBXBXBXBXBXBX",
"BXBXBXBXBXBXBXBXBXBXBXBXBXBXBXBXBXBXBXBXBXBXBXBXBXBXBXBXBXBXBXBXBXBXBXBXBXBXBXBXBXBXBXBXBXBXBXBXBXBXBXBXBXBXBXBXBXBXBXBXBXBXBXBX",
"BXBXBXBXBXBXBXBXBXBXBXBXBXBXBXBXBXBXBXBXBXBXBXBXBXBXBXBXBXBXBXBXBXBXBXBXBXBXBXBXBXBXBXBXBXBXBXBXBXBXBXBXBXBXBXBXBXBXBXBXBXBXBXBX",
"BXBXBXBXBXBXBXBXBXBXBXBXBXBXBXBXBXBXBXBXBXBXBXBXBXBXBXBXBXBXBXBXBXBXBXBXBXBXBXBXBXBXBXBXBXBXBXBXBXBXBXBXBXBXBXBXBXBXBXBXBXBXBXBX",
"BXBXBXBXBXBXBXBXBXBXBXBXBXBXBXBXBXBXBXBXBXBXBXBXBXBXBXBXBXBXBXBXBXBXBXBXBXBXBXBXBXBXBXBXBXBXBXBXBXBXBXBXBXBXBXBXBXBXBXBXBXBXBXBX",
"BXBXBXBXBXBXBXBXBXBXBXBXBXBXBXBXBXBXBXBXBXBXBXBXBXBXBXBXBXBXBXBXBXBXBXBXBXBXBXBXBXBXBXBXBXBXBXBXBXBXBXBXBXBXBXBXBXBXBXBXBXBXBXBX",
"BXBXBXBXBXBXBXBXBXBXBXBXBXBXBXBXBXBXBXBXBXBXBXBXBXBXBXBXBXBXBXBXBXBXBXBXBXBXBXBXBXBXBXBXBXBXBXBXBXBXBXBXBXBXBXBXBXBXBXBXBXBXBXBX",
"BXBXBXBXBXBXBXBXBXBXBXBXBXBXBXBXBXBXBXBXBXBXBXBXBXBXBXBXBXBXBXBXBXBXBXBXBXBXBXBXBXBXBXBXBXBXBXBXBXBXBXBXBXBXBXBXBXBXBXBXBXBXBXBX",
"BXBXBXBXBXBXBXBXBXBXBXBXBXBXBXBXBXBXBXBXBXBXBXBXBXBXBXBXBXBXBXBXBXBXBXBXBXBXBXBXBXBXBXBXBXBXBXBXBXBXBXBXBXBXBXBXBXBXBXBXBXBXBXBX",
"BXBXBXBXBXBXBXBXBXBXBXBXBXBXBXBXBXBXBXBXBXBXBXBXBXBXBXBXBXBXBXBXBXBXBXBXBXBXBXBXBXBXBXBXBXBXBXBXBXBXBXBXBXBXBXBXBXBXBXBXBXBXBXBX",
"BXBXBXBXBXBXBXBXBXBXBXBXBXBXBXBXBXBXBXBXBXBXBXBXBXBXBXBXBXBXBXBXBXBXBXBXBXBXBXBXBXBXBXBXBXBXBXBXBXBXBXBXBXBXBXBXBXBXBXBXBXBXBXBX",
"BXBXBXBXBXBXBXBXBXBXBXBXBXBXBXBXBXBXBXBXBXBXBXBXBXBXBXBXBXBXBXBXBXBXBXBXBXBXBXBXBXBXBXBXBXBXBXBXBXBXBXBXBXBXBXBXBXBXBXBXBXBXBXBX",
"BXBXBXBXBXBXBXBXBXBXBXBXBXBXBXBXBXBXBXBXBXBXBXBXBXBXBXBXBXBXBXBXBXBXBXBXBXBXBXBXBXBXBXBXBXBXBXBXBXBXBXBXBXBXBXBXBXBXBXBXBXBXBXBX",
"BXBXBXBXBXBXBXBXBXBXBXBXBXBXBXBXBXBXBXBXBXBXBXBXBXBXBXBXBXBXBXBXBXBXBXBXBXBXBXBXBXBXBXBXBXBXBXBXBXBXBXBXBXBXBXBXBXBXBXBXBXBXBXBX",
"BXBXBXBXBXBXBXBXBXBXBXBXBXBXBXBXBXBXBXBXBXBXBXBXBXBXBXBXBXBXBXBXBXBXBXBXBXBXBXBXBXBXBXBXBXBXBXBXBXBXBXBXBXBXBXBXBXBXBXBXBXBXBXcX",
"BXBXBXBXBXBXBXBXBXBXBXBXBXBXBXBXBXBXBXBXBXBXBXBXBXBXBXBXBXBXBXBXBXBXBXBXBXBXBXBXBXBXBXBXBXBXBXBXBXBXBXBXBXBXBXBXBXBXBXBXBXBXvXOX",
"BXBXBXBXBXBXBXBXBXBXBXBXBXBXBXBXBXBXBXBXBXBXBXBXBXBXBXBXBXBXBXBXBXBXBXBXBXBXBXBXBXBXBXBXBXBXBXBXBXBXBXBXBXBXBXBXBXBXBXBXBXbX*XF.",
"BXBXBXBXBXBXBXBXBXBXBXBXBXBXBXBXzXyXeXNXBXBXBXBXBXBXBXBXBXBXBXBXBXBXBXBXBXBXBXBXBXBXBXBXBXBXBXBXBXBXBXBXBXBXBXBXBXBXBXBXvX5X=Xj.",
"BXBXBXBXBXBXBXBXBXBXBXBXBXBXBXdXI.L.wXbXBXBXBXBXBXBXBXBXBXBXBXBXBXBXBXBXBXBXBXBXBXBXBXBXBXBXBXBXBXBXBXBXBXBXBXBXBXBXNXzX5X,Xj.>X",
"BXBXBXBXBXBXBXBXBXBXBXBXBXBXeXP.OXcXBXBXBXBXBXBXBXBXBXBXBXBXBXBXBXBXBXBXBXBXBXBXBXBXBXBXBXBXBXBXBXBXBXBXBXBXBXBXBXmXgXgX2Xj.+XMX",
"BXBXBXBXBXBXBXBXBXBXBXBXNXgX<XOXD.mXBXBXBXBXBXBXBXBXBXBXBXBXBXBXBXBXBXBXBXBXBXBXBXBXBXBXBXBXBXBXBXBXBXBXBXBXBXbXeXeXgXhX5X=X2XMX",
"BXBXBXBXBXBXBXBXBXBXNXxXeXdX.XH.v.1XBXBXBXBXBXBXBXBXBXBXBXBXBXBXBXBXBXBXBXBXBXBXBXBXBXBXBXBXBXBXBXBXBXBXNXjX1XR.9.&X6.eXvX2X.XdX",
"BXBXBXBXBXBXBXBXmXaX].K.).eX=X8.E.5XBXBXBXBXBXBXBXBXBXBXBXBXBXBXBXBXBXBXBXBXBXBXBXBXBXBXBXBXBXBXBXBXnXfX9X,X<X!.:.| G #.dX2X X|.",
"BXBXBXBXNXmXlXrX'.P.P.P.`.uX<X`..X*XbXBXBXBXBXBXBXBXBXBXBXBXBXBXBXBXBXBXBXBXBXBXBXBXBXBXBXBXNXMXjXfX5X,X.XH.G.OXL.G.:.} 4XXXZ.4.",
"lXlXlXlXaXaX[._.(.M.N.N.b.~.!.(.].].tXaXVXmXNXBXBXBXBXBXBXBXBXBXBXBXBXBXBXBXBXBXBXBXNXnXmXkXjX0X9X4X,X.X.XOXG.G.OX%X$X$X$X#XoX}.",
"'.'.'.)./.m.x.x.x.x.x.m.U.W.n.M.(.`.[.sXrXrXsXrXpXpXpXhXxXjXkXbXbXmXnXnXMXMXmXcXzXzXzXcXkXkXgX0X5X2X3X.X.XXXF.7.7.1.&.D.oXL.A.c.",
"J.v.x.x.x.z.K.z.z.z.l.<.i.<.Y Q b.b.m.M./.].].].)././.Y.Y.!.~.<X,X1X>X9X9X0XfXfXhXfXgX5X5X4X2X=XXXXXXXXXE.d.:.#.*.=.&.{.A.[ ' c.",
"J.z.z.Q u.T U M.m.x.Q <.W A E A Y $.R Q Q ,.b.b.N.Y.~.Y.U.R.~.~.Q.^.^.6X6X;X;X-X-X&Xj.9.9.9.6.6.6.6.#.5.*.=.=.7.*.g S.+XB.] ( ' ",
"v.T U E u.W I n.Q x.l.W W A A A E A Y ,.Y ,.8.1.8.E.Q.-XQ.a.a.W.E.W.p.a.R.p.p.p.>.p.t.>.6.6.6.>.:.#.} } O.O.} *.#.3.$X X] ( ( / ",
"R Y Q m.n.;.W u.W R %.A G ..E Y R l.R Y +.:.>.>.2.p.s.;X-Xa.Q.W.a.y.p.R.y.y.t.>.>.>.X.X.q.r.f.d.6.#.O.O.@.3._ O.S.}.oXC.' ) c c ",
"A A E x.R L P i.q.W W -.;.;.<.W G G G L L ..;.>.t.t.d.-X7X:Xf.^.W.a.^.W.u.u.;.;.X.L G L J P P 1. X X&.@.3.4.B.Z.A.3.&.' c p p p ",
"S Z A D H L i.i.X.;.X.u.T.b.y.L J L ..o.X.X.q.t.t.g.j.:X9XhX9X8X8XqX[./.n.<.W W G G D D D Z Z q  X@X+X+X|.Z.Z.' A.c.c p p p p p ",
"I Z g S L w.w.w.e.u.i.r.0.q.p.6 M C 6 H J J J X.e.t.g.g.j.7X9X;X^._.T.Q <.W Y A D Z b b q w q w O.OXB.&.*.Z.O.c.c.c.] c 9 e p p ",
"q n m G  . .J e.g.k.k.r.X.K q.J J N C C C C J L o.X.;.>.2.d.Q.Q.U.2.7.*.*.+.O.O.O.F F } O.F z &.$.V.&.&.v.J.J.T c c ( ! a a y e ",
"S f n m 6 6 J o.r.g.r.r.q.0.0.J M 6 M -.W A G G C G | L ..1.:.8.8.7.5.@.#.@.@.3.4.C.Z.{.&.z z ~ 3.V.@.' ` v.v v k l l s s t l l ",
"n = < 3 5 6 7 o.X.J J 7 H H K 6 5 1 < 1 E R S D n B V V V F +.#.:...} } } } ^ ~ { h.@X! 0 9 d d &.B.[ ' c v k k k i a ) y y t y ",
"- @ , 5 6 J o.J J 6  .6 6 7 K 7 , @ , Z I I b < n f f g m V h F F F | V j j j j ^ { |.h.l     0 {.}.[ l l r d k ! ) ) _ s y e e ",
"& @ , , 3 3 3 * 6 5 5 } 3 1 0.w.1 $ - # - , 6 6 4 n = f g g h h h j } ~ j j g h k x j x ^ x 9 S.wXC.! l r r k r 9 r 8 8 p y y y ",
"& $ 3 @ : * * * : : :  . .3 2 0.0.1 ; ; $ 2 7 K 6 < = q = d g m V : j ~ } V g d Z d > % o u C.+XS.! l l i y y o 8 . 8 . a e 8 X ",
"+ + n : 5 5 * * : B 5  .V ..5 2 1 1 b ; ; 4 5 6 < - - q # % 0 g M j j ~ ^ B g g g > o o u h.4.[ ! l z t p i y y p / ( s ( 9 X O ",
"F % = 4 @ + + + : B 9.V : V V V < ; $ M |  .h = = # # w # #   % * + : ^ ^ : j g : d z ' _ ! ! l u d d 9 k i 8 X O O O t *X3X3.*."
};
