/* XPM */
static char *result[] = {
/* columns rows colors chars-per-pixel */
"64 64 249 2 ",
"   c #090C11",
".  c #0C1718",
"X  c #12171D",
"o  c #1C120F",
"O  c #390C0A",
"+  c #38150B",
"@  c #330D1B",
"#  c #381419",
"$  c #260E0E",
"%  c #27241B",
"&  c #39241A",
"*  c #151E24",
"=  c #311A21",
"-  c #0F2322",
";  c #19282A",
":  c #1A312C",
">  c #1B2A35",
",  c #1A3735",
"<  c #232B2D",
"1  c #2A2829",
"2  c #392826",
"3  c #263828",
"4  c #383829",
"5  c #252D36",
"6  c #273637",
"7  c #373A38",
"8  c #382F38",
"9  c #1A2013",
"0  c #491A0C",
"q  c #441A19",
"w  c #561B16",
"e  c #4B0E0C",
"r  c #631B11",
"t  c #46230F",
"y  c #4C241B",
"u  c #482717",
"i  c #582617",
"p  c #4F371E",
"a  c #662818",
"s  c #74291A",
"d  c #65321B",
"f  c #77351E",
"g  c #481C25",
"h  c #472924",
"j  c #572925",
"k  c #4C332B",
"l  c #463827",
"z  c #563727",
"x  c #562A38",
"c  c #58373A",
"v  c #4A3032",
"b  c #672C22",
"n  c #673526",
"m  c #793927",
"M  c #612E37",
"N  c #673A38",
"B  c #773B35",
"V  c #752D28",
"C  c #384428",
"Z  c #284339",
"A  c #394637",
"S  c #3E5331",
"D  c #5C4426",
"F  c #474734",
"G  c #564837",
"H  c #454A2E",
"J  c #794127",
"K  c #674837",
"L  c #784437",
"P  c #6C5137",
"I  c #2F3345",
"U  c #453E41",
"Y  c #593345",
"T  c #532B4D",
"R  c #663B45",
"E  c #763E46",
"W  c #673957",
"Q  c #6A3351",
"!  c #553B6A",
"~  c #6C3C6D",
"^  c #1D4541",
"/  c #2C4644",
"(  c #335648",
")  c #365A55",
"_  c #324D4A",
"`  c #3D6A50",
"'  c #3D6060",
"]  c #564A45",
"[  c #59584A",
"{  c #4A5A5A",
"}  c #565A5A",
"|  c #4B5249",
" . c #6A4947",
".. c #774547",
"X. c #755746",
"o. c #6B4557",
"O. c #774655",
"+. c #6D584F",
"@. c #47684C",
"#. c #59624C",
"$. c #486859",
"%. c #566759",
"&. c #51785C",
"*. c #6A6458",
"=. c #756758",
"-. c #787358",
";. c #73684F",
":. c #584865",
">. c #52506A",
",. c #734B64",
"<. c #77536C",
"1. c #764876",
"2. c #7C5776",
"3. c #6A4576",
"4. c #446764",
"5. c #487367",
"6. c #577A66",
"7. c #4E6E6D",
"8. c #726F6A",
"9. c #80351F",
"0. c #973A2C",
"q. c #8F3B2D",
"w. c #854128",
"e. c #854733",
"r. c #8B5138",
"t. c #9A5539",
"y. c #984632",
"u. c #A94D38",
"i. c #A9563D",
"p. c #B1583D",
"a. c #BC613E",
"s. c #884B44",
"d. c #964B45",
"f. c #8A5743",
"g. c #8A5254",
"h. c #935254",
"j. c #A85C4C",
"k. c #87684B",
"l. c #95644E",
"z. c #876859",
"x. c #996956",
"c. c #87785D",
"v. c #9B735A",
"b. c #AB6546",
"n. c #B16F51",
"m. c #86587B",
"M. c #8C546C",
"N. c #937664",
"B. c #976677",
"V. c #90716A",
"C. c #A26D66",
"Z. c #A87768",
"A. c #B17671",
"S. c #CA7252",
"D. c #C16D6D",
"F. c #538A5E",
"G. c #558976",
"H. c #568A6D",
"J. c #65876C",
"K. c #658B76",
"L. c #65917B",
"P. c #76977B",
"I. c #59A56D",
"U. c #878157",
"Y. c #9B8667",
"T. c #879579",
"R. c #999673",
"E. c #88886C",
"W. c #B2876B",
"Q. c #B88974",
"!. c #BB9973",
"~. c #AD8B6C",
"^. c #A8A57A",
"/. c #C89974",
"(. c #CE936F",
"). c #ED9A65",
"_. c #D9A27A",
"`. c #D89267",
"'. c #683F8C",
"]. c #564B8C",
"[. c #6D5091",
"{. c #636C8F",
"}. c #895889",
"|. c #966786",
" X c #996A96",
".X c #92718E",
"XX c #A9768C",
"oX c #8D6BB1",
"OX c #A777B6",
"+X c #AE75AD",
"@X c #A375C1",
"#X c #568B88",
"$X c #5B948F",
"%X c #699B89",
"&X c #7B958A",
"*X c #71AE96",
"=X c #5F8AAD",
"-X c #6D91A2",
";X c #7EBFA7",
":X c #75C499",
">X c #75B9C2",
",X c #79CCDF",
"<X c #879985",
"1X c #8E908C",
"2X c #AA8B8E",
"3X c #97A384",
"4X c #93AA9F",
"5X c #B2B288",
"6X c #ADAB94",
"7X c #9690A9",
"8X c #95ACB2",
"9X c #AEA4A8",
"0X c #B68FAE",
"qX c #CCB991",
"wX c #EBB48A",
"eX c #E195AC",
"rX c #B0C59C",
"tX c #B1C7AB",
"yX c #8DCCAE",
"uX c #CFC89B",
"iX c #EECA96",
"pX c #D0CAAB",
"aX c #F9D6A4",
"sX c #E5D8A8",
"dX c #F5E6B7",
"fX c #EFEAB5",
"gX c #B089CE",
"hX c #CD91CE",
"jX c #DDB4DB",
"kX c #D5AFE2",
"lX c #E4B5E8",
"zX c #E2A8E8",
"xX c #8FD7D0",
"cX c #A9C2D7",
"vX c #D5D3D3",
"bX c #E1C9D9",
"nX c #EBDACF",
"mX c #FBF4C8",
"MX c #F3EECE",
"NX c #DBCDE4",
"BX c #ECD7ED",
"VX c #E7E9E9",
"CX c #F8F8E9",
"ZX c #F5EAF7",
"AX c #FBFCF3",
"SX c #FFFFFF",
"DX c #F5F7F3",
"FX c #EBF3ED",
"GX c #D6E4DD",
/* pixels */
"SXSXSXSXSXSXSXSXSXSXSXSXSXSXSXSXSXSXSXSXSXSXSXSXSXSXSXSXSXSXSXSXSXSXSXSXSXSXSXSXSXSXSXSXSXSXSXSXSXSXSXSXSXSXSXSXSXSXSXSXSXSXSXSX",
"SXSXSXSXSXSXSXSXSXSXSXSXSXSXSXSXSXSXSXSXSXSXSXSXSXSXSXSXSXSXSXSXSXSXSXSXSXSXSXSXSXSXSXSXSXSXSXSXSXSXSXSXSXSXSXSXSXSXSXSXSXSXSXSX",
"SXSXSXSXSXSXSXSXSXSXSXSXSXSXSXSXSXSXSXSXSXSXSXSXSXSXSXSXSXSXSXSXSXSXSXSXSXSXSXSXSXSXSXSXSXSXSXSXSXSXSXSXSXSXSXSXSXSXSXSXSXSXSXSX",
"SXSXSXSXSXSXSXSXSXSXSXSXSXSXSXSXSXSXSXSXSXSXSXSXSXSXSXSXSXSXSXSXSXSXSXSXSXSXSXSXSXSXSXSXSXSXSXSXSXSXSXSXSXSXSXSXSXSXSXSXSXSXSXSX",
"SXSXSXSXSXSXSXSXSXSXSXSXSXSXSXSXSXSXSXSXSXSXSXSXSXSXSXSXSXSXSXSXSXSXSXSXSXSXSXSXSXSXSXSXSXSXSXSXSXSXSXSXSXSXSXSXSXSXSXSXSXSXSXSX",
"SXSXSXSXSXSXSXSXSXSXSXSXSXSXSXSXSXSXSXSXSXSXSXSXSXSXSXSXSXSXSXSXSXSXSXSXSXSXSXSXSXSXSXSXSXSXSXSXSXSXSXSXSXSXSXSXSXSXSXSXSXSXSXSX",
"SXSXSXSXSXSXSXSXSXSXSXSXSXSXSXSXSXSXSXSXSXSXSXSXSXSXSXSXSXSXSXSXSXSXSXSXSXSXSXSXSXSXSXSXSXSXSXSXSXSXSXSXSXSXSXSXSXSXSXSXSXSXSXSX",
"SXSXSXSXSXSXSXSXSXSXSXSXSXSXSXSXSXSXSXSXSXSXSXSXSXSXSXSXSXSXSXSXSXSXSXSXSXSXSXSXSXSXSXSXSXSXSXSXSXSXSXSXSXSXSXSXSXSXSXSXSXSXSXSX",
"SXSXSXSXSXSXSXSXSXSXSXSXSXSXSXSXSXSXSXSXSXSXSXSXSXSXSXSXSXSXSXSXSXSXSXSXSXSXSXSXSXSXSXSXSXSXSXSXSXSXSXSXSXSXSXSXSXSXSXSXSXSXSXSX",
"SXSXSXSXSXSXSXSXSXSXSXSXSXSXSXSXSXSXSXSXSXSXSXSXSXSXSXSXSXSXSXSXSXSXSXSXSXSXSXSXSXSXSXSXSXSXSXSXSXSXSXSXSXSXSXSXSXSXSXSXSXSXSXSX",
"SXSXSXSXSXSXSXSXSXSXSXSXSXSXSXSXSXSXSXSXSXSXSXSXSXSXSXSXSXSXSXSXSXSXSXSXSXSXSXSXSXSXSXSXSXSXSXSXSXSXSXSXSXSXSXSXSXSXSXSXSXSXSXSX",
"SXSXSXSXSXSXSXSXSXSXSXSXSXSXSXSXSXSXSXSXSXSXSXSXSXSXSXSXSXSXSXSXSXSXSXSXSXSXSXSXSXSXSXSXSXSXSXSXSXSXSXSXSXSXSXSXSXSXSXSXSXSXSXSX",
"SXSXSXSXSXSXSXSXSXSXSXSXSXSXSXSXSXSXSXSXSXSXSXSXSXSXSXSXSXSXSXSXSXSXSXSXSXSXSXSXSXSXSXSXSXSXSXSXSXSXSXSXSXSXSXSXSXSXSXSXSXSXSXSX",
"SXSXSXSXSXSXSXSXSXSXSXSXSXSXSXSXSXSXSXSXSXSXSXSXSXSXSXSXSXSXSXSXSXSXSXSXSXSXSXSXSXSXSXSXSXSXSXSXSXSXSXSXSXSXSXSXSXSXSXSXSXSXSXSX",
"SXSXSXSXSXSXSXSXSXSXSXSXSXSXSXSXSXSXSXSXSXSXSXSXSXSXSXSXSXSXSXSXSXSXSXSXSXSXSXSXSXSXSXSXSXSXSXSXSXSXSXSXSXSXSXSXSXSXSXSXSXSXSXSX",
"SXSXSXSXSXSXSXSXSXSXSXSXSXSXSXSXSXSXSXSXSXSXSXSXSXSXSXSXSXSXSXSXSXSXSXSXSXSXSXSXSXSXSXSXSXSXSXSXSXSXSXSXSXSXSXSXSXSXSXSXSXSXSXSX",
"SXSXSXSXSXSXSXSXSXSXSXSXSXSXSXSXSXSXSXSXSXSXSXSXSXSXSXSXSXSXSXSXSXSXSXSXSXSXSXSXSXSXSXSXSXSXSXSXSXSXSXSXSXSXSXSXSXSXSXSXSXSXSXSX",
"SXSXSXSXSXSXSXSXSXSXSXSXSXSXSXSXSXSXSXSXSXSXSXSXSXSXSXSXSXSXSXSXSXSXSXSXSXSXSXSXSXSXSXSXSXSXSXSXSXSXSXSXSXSXSXSXSXSXSXSXSXSXSXSX",
"SXSXSXSXSXSXSXSXSXSXSXSXSXSXSXSXSXSXSXSXSXSXSXSXSXSXSXSXSXSXSXSXSXSXSXSXSXSXSXSXSXSXSXSXSXSXSXSXSXSXSXSXSXSXSXSXSXSXSXSXSXSXSXSX",
"SXSXSXSXSXSXSXSXSXSXSXSXSXSXSXSXSXSXSXSXSXSXSXSXSXSXSXSXSXSXSXSXSXSXSXSXSXSXSXSXSXSXSXSXSXSXSXSXSXSXSXSXSXSXSXSXSXSXSXSXSXSXSXSX",
"SXSXSXSXSXSXSXSXSXSXSXSXSXSXSXSXSXSXSXSXSXSXSXSXSXSXSXSXSXSXSXSXSXSXSXSXSXSXSXSXSXSXSXSXSXSXSXSXSXSXSXSXSXSXSXSXSXSXSXSXSXSXSXSX",
"SXSXSXSXSXSXSXSXSXSXSXSXSXSXSXSXSXSXSXSXSXSXSXSXSXSXSXSXSXSXSXSXSXSXSXSXSXSXSXSXSXSXSXSXSXSXSXSXSXSXSXSXSXSXSXSXSXSXSXSXSXSXSXSX",
"SXSXSXSXSXSXSXSXSXSXSXSXSXSXSXSXSXSXSXSXSXSXSXSXSXSXSXSXSXSXSXSXSXSXSXSXSXSXSXSXSXSXSXSXSXSXSXSXSXSXSXSXSXSXSXSXSXSXSXSXSXSXSXSX",
"SXSXSXSXSXSXSXSXSXSXSXSXSXSXSXSXSXSXSXSXSXSXSXSXSXSXSXSXSXSXSXSXSXSXSXSXSXSXSXSXSXSXSXSXSXSXSXSXSXSXSXSXSXSXSXSXSXSXSXSXSXSXSXSX",
"SXSXSXSXSXSXSXSXSXSXSXSXSXSXSXSXSXSXSXSXSXSXSXSXSXSXSXSXSXSXSXSXSXSXSXSXSXSXSXSXSXSXSXSXSXSXSXSXSXSXSXSXSXSXSXSXSXSXSXSXSXSXSXSX",
"SXSXSXSXSXSXSXSXSXSXSXSXSXSXSXSXSXSXSXSXSXSXSXSXSXSXSXSXSXSXSXSXSXSXSXSXSXSXSXSXSXSXSXSXSXSXSXSXSXSXSXSXSXSXSXSXSXSXSXSXSXSXSXSX",
"SXSXSXSXSXSXSXSXSXSXSXSXSXSXSXSXSXSXSXSXSXSXSXSXSXSXSXSXSXSXSXSXSXSXSXSXSXSXSXSXSXSXSXSXSXSXSXSXSXSXSXSXSXSXSXSXSXSXSXSXSXSXSXSX",
"SXSXSXSXSXSXSXSXSXSXSXSXSXSXSXSXSXSXSXSXSXSXSXSXSXSXSXSXSXSXSXSXSXSXSXSXSXSXSXSXSXSXSXSXSXSXSXSXSXSXSXSXSXSXSXSXSXSXSXSXSXSXSXSX",
"SXSXSXSXSXSXSXSXSXSXSXSXSXSXSXSXSXSXSXSXSXSXSXSXSXSXSXSXSXSXSXSXSXSXSXSXSXSXSXSXSXSXSXSXSXSXSXSXSXSXSXSXSXSXSXSXSXSXSXSXSXSXSXSX",
"SXSXSXSXSXSXSXSXSXSXSXSXSXSXSXSXSXSXSXSXSXSXSXSXSXSXSXSXSXSXSXSXSXSXSXSXSXSXSXSXSXSXSXSXSXSXSXSXSXSXSXSXSXSXSXSXSXSXSXSXSXSXSXSX",
"SXSXSXSXSXSXSXSXSXSXSXSXSXSXSXSXSXSXSXSXSXSXSXSXSXSXSXSXSXSXSXSXSXSXSXSXSXSXSXSXSXSXSXSXSXSXSXSXSXSXSXSXSXSXSXSXSXSXSXSXSXSXSXSX",
"SXSXSXSXSXSXSXSXSXSXSXSXSXSXSXSXSXSXSXSXSXSXSXSXSXSXSXSXSXSXSXSXSXSXSXSXSXSXSXSXSXSXSXSXSXSXSXSXSXSXSXSXSXSXSXSXSXSXSXSXSXSXSXSX",
"SXSXSXSXSXSXSXSXSXSXSXSXSXSXSXSXSXSXSXSXSXSXSXSXSXSXSXSXSXSXSXSXSXSXSXSXSXSXSXSXSXSXSXSXSXSXSXSXSXSXSXSXSXSXSXSXSXSXSXSXSXSXSXSX",
"SXSXSXSXSXSXSXSXSXSXSXSXSXSXSXSXSXSXSXSXSXSXSXSXSXSXSXSXSXSXSXSXSXSXSXSXSXSXSXSXSXSXSXSXSXSXSXSXSXSXSXSXSXSXSXSXSXSXSXSXSXSXSXSX",
"SXSXSXSXSXSXSXSXSXSXSXSXSXSXSXSXSXSXSXSXSXSXSXSXSXSXSXSXSXSXSXSXSXSXSXSXSXSXSXSXSXSXSXSXSXSXSXSXSXSXSXSXSXSXSXSXSXSXSXSXSXSXSXSX",
"SXSXSXSXSXSXSXSXSXSXSXSXSXSXSXSXSXSXSXSXSXSXSXSXSXSXSXSXSXSXSXSXSXSXSXSXSXSXSXSXSXSXSXSXSXSXSXSXSXSXSXSXSXSXSXSXSXSXSXSXSXSXSXSX",
"SXSXSXSXSXSXSXSXSXSXSXSXSXSXSXSXSXSXSXSXSXSXSXSXSXSXSXSXSXSXSXSXSXSXSXSXSXSXSXSXSXSXSXSXSXSXSXSXSXSXSXSXSXSXSXSXSXSXSXSXSXSXSXSX",
"SXSXSXSXSXSXSXSXSXSXSXSXSXSXSXSXSXSXSXSXSXSXSXSXSXSXSXSXSXSXSXSXSXSXSXSXSXSXSXSXSXSXSXSXSXSXSXSXSXSXSXSXSXSXSXSXSXSXSXSXSXSXSXFX",
"SXSXSXSXSXSXSXSXSXSXSXSXSXSXSXSXSXSXSXSXSXSXSXSXSXSXSXSXSXSXSXSXSXSXSXSXSXSXSXSXSXSXSXSXSXSXSXSXSXSXSXSXSXSXSXSXSXSXSXSXSXSXVX4X",
"SXSXSXSXSXSXSXSXSXSXSXSXSXSXSXSXSXSXSXSXSXSXSXSXSXSXSXSXSXSXSXSXSXSXSXSXSXSXSXSXSXSXSXSXSXSXSXSXSXSXSXSXSXSXSXSXSXSXSXSXSXCX6X8.",
"SXSXSXSXSXSXSXSXSXSXSXSXSXSXSXSXGXcXcXDXSXSXSXSXSXSXSXSXSXSXSXSXSXSXSXSXSXSXSXSXSXSXSXSXSXSXSXSXSXSXSXSXSXSXSXSXSXSXSXSXFXpX!.!.",
"SXSXSXSXSXSXSXSXSXSXSXSXSXSXZXvX=X=X8XVXSXSXSXSXSXSXSXSXSXSXSXSXSXSXSXSXSXSXSXSXSXSXSXSXSXSXSXSXSXSXSXSXSXSXSXSXSXSXDXFXpX5X~.uX",
"SXSXSXSXSXSXSXSXSXSXSXSXSXSXvX1X7XFXDXSXSXSXSXSXSXSXSXSXSXSXSXSXSXSXSXSXSXSXSXSXSXSXSXSXSXSXSXSXSXSXSXSXSXSXSXSXSXCXMXnXuXR.^.CX",
"SXSXSXSXSXSXSXSXSXSXSXSXDXVX4X1X{.VXSXSXSXSXSXSXSXSXSXSXSXSXSXSXSXSXSXSXSXSXSXSXSXSXSXSXSXSXSXSXSXSXSXSXSXSXSXCXvXvXMXmXfX^.6XDX",
"SXSXSXSXSXSXSXSXSXSXSXVXvXfX3X8.8.9XSXSXSXSXSXSXSXSXSXSXSXSXSXSXSXSXSXSXSXSXSXSXSXSXSXSXSXSXSXSXSXSXSXSXDXnXwXZ.N.R.c.pXCXrX&XtX",
"SXSXSXSXSXSXSXSXZXkXgX[.oXvX5Xz.V.pXDXSXSXSXSXSXSXSXSXSXSXSXSXSXSXSXSXSXSXSXSXSXSXSXSXSXSXSXSXSXSXSXCXnXiX6X9X.X;.+.K *.MXrXP.L.",
"SXSXSXSXAXZXBXkX7X X.X.X7X0X0X7X1X1XVXSXSXSXSXSXSXSXSXSXSXSXSXSXSXSXSXSXSXSXSXSXSXSXSXSXSXSXSXAXMXfXuX6X3X1X&X-X-X1X=.G rX&XL.J.",
"BXBXZXZXBXlXhX+XXX}.}.m.m.XX2XXX+XgXhXNXBXZXSXSXSXSXSXSXSXSXSXSXSXSXSXSXSXSXSXSXSXSXSXAXDXCXmXdXsXuX6X3X<XP.&X1X-X8X,X,XxX;X-X%X",
"oX@XOX X}.}.1.1.~ 1.1.1.M.D.M.|. X0XhXzXlXlXzXjXjXbXbXbXGXBXnXFXFXDXDXCXAXAXAXAXSXAXAXAXAXCXMXfXpXrXrX3X<XT.T.c.8.-.4.#X$X$X#X{.",
"[.[.[.}.'.'.[.'.! ~ ~ M.D.f.o.,.<.2.m.}. X+XOXOX+X+X X|.|.XX2X2X6XqXqXiXaXdXdXdXmXmXdXsXuXrX5X^.T.T.T.T.Y.v.;.X.=.*.{ %X#X7.' ' ",
"].].! E h.Q ! }.[.~ M.g.E R Y Y W :.o.,.W 1.<.m.m.B.2XB.B.C.B.Q.Q.(.(._._._._././.~.~.Y.Y.U.U.-.;.-.;.*.*.%.*.-.*.v %XyX6.) ) ' ",
">.! T T j.d.x M.E 1.,.o. .c x Y Y Y R o...+.z.z.c.N.Q./.W.W.A.A.A.Z.Z.Z.Z.n.C.x.v.x.x.k.c.k.-.k.;.P [ #.] } ] *.[ 7.yX%X) _ _ ) ",
",.W O.2.B.d.d.h.E o.:.R B  .R W ~ ~ o. ...X.z.z.x.N.W././.W.A.Z.C.C.C.C.C.j.l.l.l.f.f.f.t.n.S.n.J.;.#.[ @.&.@.[ G.%X%XG.' _ / I ",
"x c R ~ W N 0.S.d.E E s.d.g.O.s.B R N L L X.f.f.x.v.Z./.wX_.(.A.A.A.D.A.C.j.h.s.e.L B B B q.w.=.T.J.%.%.&.F.H.K.#X6.$.4._ ^ , > ",
"M x T x V q.S.j.d.d.r.h.B.M.C.L f L r.e.r.r.t.b.b.n.`.).aXmXaXwXeXeXhXXXB.g.O.E E M c M x x g g &X:XyX*XL.L.J.5.#X5.Z 6 > > > > ",
"T x j x E j.j.u.i.b.S.p.y.d.C.d n z b m m J e.r.i.b.n.`.`._.iX_.XXXXB.M.O.O.R N x x j g g # # @ | &X5.} 8.8.{ 4.#X7.' I > > > > ",
"g g h N K L w.t.S.).).a.y.y.y.J m V n K n n B L L r.r.l.v.v.~.Q.Z.V.8.=.*.+.[ ] G G c ] | U U } 7.8.%.{ >.[.'.:.I _ ) _ , , : - ",
"v v j j j d J w.p.S.a.p.u.w.y.m b d n ..O.N N B N K K  .X.=.k.N.V.-.-.#.#.#.@.6.F.F.J.%X7.v 7 | 6.6.} ' >.>.! I I 6 6 Z Z : Z 6 ",
"h w w i i d f w.t.J J f 9.9.q.a i i r w Y Q M x j p z z z G [ +.X.P P G G F F A ` I.:XS 1 % 1 5 } H.' ` _ I I I 5 , 6 ( , : : < ",
"+ e 0 i V 9.w.9.J d D d a 9.0.s 0 0 0 x T T w w y y u k k v k G G G G G H l 4 l C ` I.F.4 o $ % %X%XF._ 6 < 1 5 / ) ( ` , ; - - ",
"+ q 0 0 0 i a i i i D K i r y.u.r e # @ e e a d i i y h h l h k l l H H F l 4 k 8 3 4 C C C ; L.yXG.Z 7 < < 6 1 ; > * X > ; : ; ",
"O + i 0 t t t + t t u D D w r 0.0.w O O O r s q.a y q 2 h & 2 k z l l H F z h 2 T 1 & % 9 : H.;X%X_ A 6 < ; ; X X . X . , - . . ",
"O + p u p d t t & p D D D P i e r r i O O y i d w q # # @ # = h n p C S C p l h u & 9 9 : H.H.' Z 7 7 < > 5 ; > , ^ / , ) ; . . ",
"G $ q y + + + + + p U.z u k N k q e e j X.G z u # @ @ @ @ $ o = + + & C H l l 2 2 1 v $.` Z S Z 7 1 < ; 5 I X .       < 1X4X} } "
};
