/* XPM */
static char *result[] = {
/* columns rows colors chars-per-pixel */
"64 64 245 2 ",
"   c #1C0B6F",
".  c #180D75",
"X  c #0A147B",
"o  c #0C1B7F",
"O  c #081577",
"+  c #1E1373",
"@  c #1E127B",
"#  c #1C1C7C",
"$  c #171878",
"%  c #050E75",
"&  c #280C6F",
"*  c #280E71",
"=  c #241273",
"-  c #2C1573",
";  c #2B1A73",
":  c #23147B",
">  c #241B7C",
",  c #2C1C7B",
"<  c #261A78",
"1  c #331C76",
"2  c #331C7B",
"3  c #381976",
"4  c #13247E",
"5  c #2B237C",
"6  c #2B297E",
"7  c #25277E",
"8  c #34227C",
"9  c #3B237D",
"0  c #33287C",
"q  c #35307F",
"w  c #411B79",
"e  c #44237D",
"r  c #48267E",
"t  c #52297F",
"y  c #0D1D83",
"u  c #0E1D89",
"i  c #121E85",
"p  c #181E87",
"a  c #191F91",
"s  c #2D1C83",
"d  c #281D87",
"f  c #351E89",
"g  c #351D94",
"h  c #291D90",
"j  c #0D2384",
"k  c #0D298B",
"l  c #132286",
"z  c #13238B",
"x  c #1B258B",
"c  c #142A8B",
"v  c #1C2B8B",
"b  c #1B2783",
"n  c #1D3189",
"m  c #1B2D92",
"M  c #172792",
"N  c #1C3492",
"B  c #1D3A94",
"V  c #1C3799",
"C  c #262382",
"Z  c #2B2583",
"A  c #242C83",
"S  c #2C2B85",
"D  c #27298A",
"F  c #322383",
"G  c #34228B",
"H  c #3A248C",
"J  c #332C8B",
"K  c #3D2B8B",
"L  c #392983",
"P  c #243385",
"I  c #2C338B",
"U  c #24358C",
"Y  c #39338A",
"T  c #38338A",
"R  c #282995",
"E  c #332492",
"W  c #3B2B93",
"Q  c #392A99",
"!  c #2C3C9D",
"~  c #263897",
"^  c #343493",
"/  c #353C97",
"(  c #393899",
")  c #2E2AA4",
"_  c #382AA6",
"`  c #283BA3",
"'  c #3735A6",
"]  c #3A2DB6",
"[  c #3532BA",
"{  c #442A83",
"}  c #4A2C84",
"|  c #432C8B",
" . c #472788",
".. c #592B86",
"X. c #532A86",
"o. c #44318D",
"O. c #4C338A",
"+. c #48388B",
"@. c #57358A",
"#. c #432C93",
"$. c #442E99",
"%. c #423394",
"&. c #4B3392",
"*. c #423B94",
"=. c #493599",
"-. c #543393",
";. c #533B94",
":. c #5A3997",
">. c #673B8E",
",. c #653B94",
"<. c #432CA0",
"1. c #422EAC",
"2. c #4F34A5",
"3. c #4434AB",
"4. c #4837A9",
"5. c #5739A8",
"6. c #4837B4",
"7. c #543CB8",
"8. c #2E439B",
"9. c #25459A",
"0. c #3D419E",
"q. c #35419A",
"w. c #2B43A3",
"e. c #2948A5",
"r. c #314CA3",
"t. c #3548A7",
"y. c #2E57A8",
"u. c #3253A5",
"i. c #3655AC",
"p. c #294EB1",
"a. c #395BB4",
"s. c #3558B8",
"d. c #2E50B6",
"f. c #3B62BA",
"g. c #376DAF",
"h. c #43429D",
"j. c #4A469A",
"k. c #53459C",
"l. c #59469C",
"z. c #51529A",
"x. c #674696",
"c. c #754898",
"v. c #74519F",
"b. c #4342A2",
"n. c #4C45A4",
"m. c #4C4DA3",
"M. c #454CA6",
"N. c #5C4BA3",
"B. c #5E46AC",
"V. c #5747A5",
"C. c #4B56AA",
"Z. c #5959A8",
"A. c #5745B7",
"S. c #4F5DBC",
"D. c #475AB6",
"F. c #5857BA",
"G. c #4F42BA",
"H. c #634CA7",
"J. c #624DAB",
"K. c #6A48A8",
"L. c #7448A8",
"P. c #6757A9",
"I. c #735BAD",
"U. c #7B5BA8",
"Y. c #6548BA",
"T. c #6754B4",
"R. c #795FB2",
"E. c #4B61B7",
"W. c #5765B8",
"Q. c #6D61AB",
"!. c #7863AE",
"~. c #666CB9",
"^. c #7B63B1",
"/. c #6F76BE",
"(. c #3539C4",
"). c #4436C5",
"_. c #395AC6",
"`. c #375AD6",
"'. c #3D64C7",
"]. c #5747C4",
"[. c #5C55CA",
"{. c #5747D6",
"}. c #644AC9",
"|. c #644CD6",
" X c #6453D4",
".X c #7A5ADF",
"XX c #6A5FCE",
"oX c #4876C7",
"OX c #4D6ACD",
"+X c #6668C3",
"@X c #6778C5",
"#X c #7779C6",
"$X c #706FD5",
"%X c #7056E3",
"&X c #447BEA",
"*X c #7472E1",
"=X c #885EA3",
"-X c #8065B3",
";X c #8873BB",
":X c #8A65AB",
">X c #835DCF",
",X c #857BC5",
"<X c #8C6CC0",
"1X c #8A78ED",
"2X c #826CF2",
"3X c #8974ED",
"4X c #5881DA",
"5X c #7D88D9",
"6X c #7A89D2",
"7X c #4C83ED",
"8X c #7D82E0",
"9X c #9186BB",
"0X c #8587C8",
"qX c #9183C9",
"wX c #888BD4",
"eX c #9393D9",
"rX c #9292D5",
"tX c #9BA6D1",
"yX c #858AE5",
"uX c #9398E5",
"iX c #9499FA",
"pX c #8B8DEC",
"aX c #A79BED",
"sX c #9BA6EC",
"dX c #9DA3FC",
"fX c #B7B5EA",
"gX c #B6ABF5",
"hX c #ABB3F6",
"jX c #A8AAEB",
"kX c #B1ABDB",
"lX c #C2BDE8",
"zX c #C1B9F3",
"xX c #BCC2F4",
"cX c #CCC8EC",
"vX c #C7CAF6",
"bX c #C8D3F5",
"nX c #D3D6F5",
"mX c #D7DBF6",
"MX c #D2CEF2",
"NX c #E1DEFB",
"BX c #DBE0F7",
"VX c #E7E8F8",
"CX c #F5F5FD",
"ZX c #FFFFFF",
"AX c #F7F8FE",
/* pixels */
"ZXZXZXZXZXZXZXZXZXZXZXZXZXZXZXZXZXZXZXZXZXZXZXZXZXZXZXZXZXZXZXZXZXZXZXZXZXZXZXZXZXZXZXZXZXZXZXZXZXZXZXZXZXZXZXZXZXZXZXZXZXZXZXZX",
"ZXZXZXZXZXZXZXZXZXZXZXZXZXZXZXZXZXZXZXZXZXZXZXZXZXZXZXZXZXZXZXZXZXZXZXZXZXZXZXZXZXZXZXZXZXZXZXZXZXZXZXZXZXZXZXZXZXZXZXZXZXZXZXZX",
"ZXZXZXZXZXZXZXZXZXZXZXZXZXZXZXZXZXZXZXZXZXZXZXZXZXZXZXZXZXZXZXZXZXZXZXZXZXZXZXZXZXZXZXZXZXZXZXZXZXZXZXZXZXZXZXZXZXZXZXZXZXZXZXZX",
"ZXZXZXZXZXZXZXZXZXZXZXZXZXZXZXZXZXZXZXZXZXZXZXZXZXZXZXZXZXZXZXZXZXZXZXZXZXZXZXZXZXZXZXZXZXZXZXZXZXZXZXZXZXZXZXZXZXZXZXZXZXZXZXZX",
"ZXZXZXZXZXZXZXZXZXZXZXZXZXZXZXZXZXZXZXZXZXZXZXZXZXZXZXZXZXZXZXZXZXZXZXZXZXZXZXZXZXZXZXZXZXZXZXZXZXZXZXZXZXZXZXZXZXZXZXZXZXZXZXZX",
"ZXZXZXZXZXZXZXZXZXZXZXZXZXZXZXZXZXZXZXZXZXZXZXZXZXZXZXZXZXZXZXZXZXZXZXZXZXZXZXZXZXZXZXZXZXZXZXZXZXZXZXZXZXZXZXZXZXZXZXZXZXZXZXZX",
"ZXZXZXZXZXZXZXZXZXZXZXZXZXZXZXZXZXZXZXZXZXZXZXZXZXZXZXZXZXZXZXZXZXZXZXZXZXZXZXZXZXZXZXZXZXZXZXZXZXZXZXZXZXZXZXZXZXZXZXZXZXZXZXZX",
"ZXZXZXZXZXZXZXZXZXZXZXZXZXZXZXZXZXZXZXZXZXZXZXZXZXZXZXZXZXZXZXZXZXZXZXZXZXZXZXZXZXZXZXZXZXZXZXZXZXZXZXZXZXZXZXZXZXZXZXZXZXZXZXZX",
"ZXZXZXZXZXZXZXZXZXZXZXZXZXZXZXZXZXZXZXZXZXZXZXZXZXZXZXZXZXZXZXZXZXZXZXZXZXZXZXZXZXZXZXZXZXZXZXZXZXZXZXZXZXZXZXZXZXZXZXZXZXZXZXZX",
"ZXZXZXZXZXZXZXZXZXZXZXZXZXZXZXZXZXZXZXZXZXZXZXZXZXZXZXZXZXZXZXZXZXZXZXZXZXZXZXZXZXZXZXZXZXZXZXZXZXZXZXZXZXZXZXZXZXZXZXZXZXZXZXZX",
"ZXZXZXZXZXZXZXZXZXZXZXZXZXZXZXZXZXZXZXZXZXZXZXZXZXZXZXZXZXZXZXZXZXZXZXZXZXZXZXZXZXZXZXZXZXZXZXZXZXZXZXZXZXZXZXZXZXZXZXZXZXZXZXZX",
"ZXZXZXZXZXZXZXZXZXZXZXZXZXZXZXZXZXZXZXZXZXZXZXZXZXZXZXZXZXZXZXZXZXZXZXZXZXZXZXZXZXZXZXZXZXZXZXZXZXZXZXZXZXZXZXZXZXZXZXZXZXZXZXZX",
"ZXZXZXZXZXZXZXZXZXZXZXZXZXZXZXZXZXZXZXZXZXZXZXZXZXZXZXZXZXZXZXZXZXZXZXZXZXZXZXZXZXZXZXZXZXZXZXZXZXZXZXZXZXZXZXZXZXZXZXZXZXZXZXZX",
"ZXZXZXZXZXZXZXZXZXZXZXZXZXZXZXZXZXZXZXZXZXZXZXZXZXZXZXZXZXZXZXZXZXZXZXZXZXZXZXZXZXZXZXZXZXZXZXZXZXZXZXZXZXZXZXZXZXZXZXZXZXZXZXZX",
"ZXZXZXZXZXZXZXZXZXZXZXZXZXZXZXZXZXZXZXZXZXZXZXZXZXZXZXZXZXZXZXZXZXZXZXZXZXZXZXZXZXZXZXZXZXZXZXZXZXZXZXZXZXZXZXZXZXZXZXZXZXZXZXZX",
"ZXZXZXZXZXZXZXZXZXZXZXZXZXZXZXZXZXZXZXZXZXZXZXZXZXZXZXZXZXZXZXZXZXZXZXZXZXZXZXZXZXZXZXZXZXZXZXZXZXZXZXZXZXZXZXZXZXZXZXZXZXZXZXZX",
"ZXZXZXZXZXZXZXZXZXZXZXZXZXZXZXZXZXZXZXZXZXZXZXZXZXZXZXZXZXZXZXZXZXZXZXZXZXZXZXZXZXZXZXZXZXZXZXZXZXZXZXZXZXZXZXZXZXZXZXZXZXZXZXZX",
"ZXZXZXZXZXZXZXZXZXZXZXZXZXZXZXZXZXZXZXZXZXZXZXZXZXZXZXZXZXZXZXZXZXZXZXZXZXZXZXZXZXZXZXZXZXZXZXZXZXZXZXZXZXZXZXZXZXZXZXZXZXZXZXZX",
"ZXZXZXZXZXZXZXZXZXZXZXZXZXZXZXZXZXZXZXZXZXZXZXZXZXZXZXZXZXZXZXZXZXZXZXZXZXZXZXZXZXZXZXZXZXZXZXZXZXZXZXZXZXZXZXZXZXZXZXZXZXZXZXZX",
"ZXZXZXZXZXZXZXZXZXZXZXZXZXZXZXZXZXZXZXZXZXZXZXZXZXZXZXZXZXZXZXZXZXZXZXZXZXZXZXZXZXZXZXZXZXZXZXZXZXZXZXZXZXZXZXZXZXZXZXZXZXZXZXZX",
"ZXZXZXZXZXZXZXZXZXZXZXZXZXZXZXZXZXZXZXZXZXZXZXZXZXZXZXZXZXZXZXZXZXZXZXZXZXZXZXZXZXZXZXZXZXZXZXZXZXZXZXZXZXZXZXZXZXZXZXZXZXZXZXZX",
"ZXZXZXZXZXZXZXZXZXZXZXZXZXZXZXZXZXZXZXZXZXZXZXZXZXZXZXZXZXZXZXZXZXZXZXZXZXZXZXZXZXZXZXZXZXZXZXZXZXZXZXZXZXZXZXZXZXZXZXZXZXZXZXZX",
"ZXZXZXZXZXZXZXZXZXZXZXZXZXZXZXZXZXZXZXZXZXZXZXZXZXZXZXZXZXZXZXZXZXZXZXZXZXZXZXZXZXZXZXZXZXZXZXZXZXZXZXZXZXZXZXZXZXZXZXZXZXZXZXZX",
"ZXZXZXZXZXZXZXZXZXZXZXZXZXZXZXZXZXZXZXZXZXZXZXZXZXZXZXZXZXZXZXZXZXZXZXZXZXZXZXZXZXZXZXZXZXZXZXZXZXZXZXZXZXZXZXZXZXZXZXZXZXZXZXZX",
"ZXZXZXZXZXZXZXZXZXZXZXZXZXZXZXZXZXZXZXZXZXZXZXZXZXZXZXZXZXZXZXZXZXZXZXZXZXZXZXZXZXZXZXZXZXZXZXZXZXZXZXZXZXZXZXZXZXZXZXZXZXZXZXZX",
"ZXZXZXZXZXZXZXZXZXZXZXZXZXZXZXZXZXZXZXZXZXZXZXZXZXZXZXZXZXZXZXZXZXZXZXZXZXZXZXZXZXZXZXZXZXZXZXZXZXZXZXZXZXZXZXZXZXZXZXZXZXZXZXZX",
"ZXZXZXZXZXZXZXZXZXZXZXZXZXZXZXZXZXZXZXZXZXZXZXZXZXZXZXZXZXZXZXZXZXZXZXZXZXZXZXZXZXZXZXZXZXZXZXZXZXZXZXZXZXZXZXZXZXZXZXZXZXZXZXZX",
"ZXZXZXZXZXZXZXZXZXZXZXZXZXZXZXZXZXZXZXZXZXZXZXZXZXZXZXZXZXZXZXZXZXZXZXZXZXZXZXZXZXZXZXZXZXZXZXZXZXZXZXZXZXZXZXZXZXZXZXZXZXZXZXZX",
"ZXZXZXZXZXZXZXZXZXZXZXZXZXZXZXZXZXZXZXZXZXZXZXZXZXZXZXZXZXZXZXZXZXZXZXZXZXZXZXZXZXZXZXZXZXZXZXZXZXZXZXZXZXZXZXZXZXZXZXZXZXZXZXZX",
"ZXZXZXZXZXZXZXZXZXZXZXZXZXZXZXZXZXZXZXZXZXZXZXZXZXZXZXZXZXZXZXZXZXZXZXZXZXZXZXZXZXZXZXZXZXZXZXZXZXZXZXZXZXZXZXZXZXZXZXZXZXZXZXZX",
"ZXZXZXZXZXZXZXZXZXZXZXZXZXZXZXZXZXZXZXZXZXZXZXZXZXZXZXZXZXZXZXZXZXZXZXZXZXZXZXZXZXZXZXZXZXZXZXZXZXZXZXZXZXZXZXZXZXZXZXZXZXZXZXZX",
"ZXZXZXZXZXZXZXZXZXZXZXZXZXZXZXZXZXZXZXZXZXZXZXZXZXZXZXZXZXZXZXZXZXZXZXZXZXZXZXZXZXZXZXZXZXZXZXZXZXZXZXZXZXZXZXZXZXZXZXZXZXZXZXZX",
"ZXZXZXZXZXZXZXZXZXZXZXZXZXZXZXZXZXZXZXZXZXZXZXZXZXZXZXZXZXZXZXZXZXZXZXZXZXZXZXZXZXZXZXZXZXZXZXZXZXZXZXZXZXZXZXZXZXZXZXZXZXZXZXZX",
"ZXZXZXZXZXZXZXZXZXZXZXZXZXZXZXZXZXZXZXZXZXZXZXZXZXZXZXZXZXZXZXZXZXZXZXZXZXZXZXZXZXZXZXZXZXZXZXZXZXZXZXZXZXZXZXZXZXZXZXZXZXZXZXZX",
"ZXZXZXZXZXZXZXZXZXZXZXZXZXZXZXZXZXZXZXZXZXZXZXZXZXZXZXZXZXZXZXZXZXZXZXZXZXZXZXZXZXZXZXZXZXZXZXZXZXZXZXZXZXZXZXZXZXZXZXZXZXZXZXZX",
"ZXZXZXZXZXZXZXZXZXZXZXZXZXZXZXZXZXZXZXZXZXZXZXZXZXZXZXZXZXZXZXZXZXZXZXZXZXZXZXZXZXZXZXZXZXZXZXZXZXZXZXZXZXZXZXZXZXZXZXZXZXZXZXZX",
"ZXZXZXZXZXZXZXZXZXZXZXZXZXZXZXZXZXZXZXZXZXZXZXZXZXZXZXZXZXZXZXZXZXZXZXZXZXZXZXZXZXZXZXZXZXZXZXZXZXZXZXZXZXZXZXZXZXZXZXZXZXZXZXZX",
"ZXZXZXZXZXZXZXZXZXZXZXZXZXZXZXZXZXZXZXZXZXZXZXZXZXZXZXZXZXZXZXZXZXZXZXZXZXZXZXZXZXZXZXZXZXZXZXZXZXZXZXZXZXZXZXZXZXZXZXZXZXZXZXmX",
"ZXZXZXZXZXZXZXZXZXZXZXZXZXZXZXZXZXZXZXZXZXZXZXZXZXZXZXZXZXZXZXZXZXZXZXZXZXZXZXZXZXZXZXZXZXZXZXZXZXZXZXZXZXZXZXZXZXZXZXZXZXZXbX@X",
"ZXZXZXZXZXZXZXZXZXZXZXZXZXZXZXZXZXZXZXZXZXZXZXZXZXZXZXZXZXZXZXZXZXZXZXZXZXZXZXZXZXZXZXZXZXZXZXZXZXZXZXZXZXZXZXZXZXZXZXZXZXnX~.M.",
"ZXZXZXZXZXZXZXZXZXZXZXZXZXZXZXAXbXsXjXCXAXZXZXZXZXZXZXZXZXZXZXZXZXZXZXZXZXZXZXZXZXZXZXZXZXZXZXZXZXZXZXZXZXZXZXZXZXZXZXAXxX6XQ.Q.",
"ZXZXZXZXZXZXZXZXZXZXZXZXZXZXZXjX`._.6XVXZXZXZXZXZXZXZXZXZXZXZXZXZXZXZXZXZXZXZXZXZXZXZXZXZXZXZXZXZXZXZXZXZXZXZXZXZXZXVXhX6X~.P.9X",
"ZXZXZXZXZXZXZXZXZXZXZXZXZXAXjXF.+XmXZXZXZXZXZXZXZXZXZXZXZXZXZXZXZXZXZXZXZXZXZXZXZXZXZXZXZXZXZXZXZXZXZXZXZXZXZXZXCXvXyXyX/.Z./.VX",
"ZXZXZXZXZXZXZXZXZXZXZXAXCXuX+XOXOXmXZXZXZXZXZXZXZXZXZXZXZXZXZXZXZXZXZXZXZXZXZXZXZXZXZXZXZXZXZXZXZXZXZXZXZXZXAXbXyX8XyXeXwX~.0XCX",
"ZXZXZXZXZXZXZXZXZXZXCXhXyXyXW.n.m.9XZXZXZXZXZXZXZXZXZXZXZXZXZXZXZXZXZXZXZXZXZXZXZXZXZXZXZXZXZXZXZXZXZXZXCXlX,XB.C.Z.z.$XsX6XE.tX",
"ZXZXZXZXZXZXZXZXBXaX%X].{.*X~.m.Z.rXCXZXZXZXZXZXZXZXZXZXZXZXZXZXZXZXZXZXZXZXZXZXZXZXZXZXZXZXZXZXZXZXmXkX,X+XT.F.j.*.o.0.yX@XE.y.",
"ZXZXAXZXAXNXgX1X X].G.G.[.XX+X[.F.~.VXZXZXZXZXZXZXZXZXZXZXZXZXZXZXZXZXZXZXZXZXZXZXZXZXZXZXZXAXmXfXrX#X+XW.S.D._.OXG.0.I /.C.i.u.",
"zXgXgXiXpX1X.X}.}.A.G.7.6.F.Y.[.|. X3XgXMXVXCXZXZXZXZXZXZXZXZXZXZXZXZXZXZXZXZXZXZXCXVXmXxXsXuXrX0X#X@XW.E.D.S.D.OXOX&X7X7X&XOXa.",
"{.|.|.{.).7.6.1.1.1.3.4.5.L.7.A.]. X.X2X2X2X2X1XaXgXlXlXlXMXMXnXmXNXmXnXnXbXvXhXdXiXiXiXiXuXuXwX#X@X@XW.E.S.C.m.m.h.w.s._._.s.d.",
"(.] 6.2.1.] ).1.) ] ] 5.K.=.Q <.4.4.6.7.].}.|. X}.}.Y.7.A.A.T.+X~./.#X,XqXqXrXeXuXwXwX0X6X#X~.W.E.C.E.E.Z.N.j.*.h.' ! '.s.e.` e.",
"(.[ ) 1.5._ ) 7.6.1.2.2.%.E E E Q ' Q 3.<.' 4.4.G.A.Y.A.B.J.J.T.I.I.U.^.^.^.^.!.I.P.P.Z.Z.z.z.h.0.j.h.0.0.8.0.m.h.Z a.oXp.V V ` ",
"[ ) E g ,.-.f 5.<.1._ Q %.H H E E W Q $.$.4.n.n.k.V.P.I.P.P.J.J.J.K.B.H.J.H.N.l.l.l.l.j.j.j.j.j.j.Y ^ / ^ ! ^ 0.q.r.4Xf.B V V V ",
"Q Q <.6.V.-.-.5.&._ _ W | &.Q Q _ 1.Q %.( =.k.k.k.N.H.!.I.P.J.J.B.N.N.K.V.5.l.;.l.;.&.O.:.x.v.x.z.q./ ~ q.8.~ ! a.f.f.p.e.V m M ",
"E H E 1.<.#...,.-.&.#.&.-.=.=.&.| W #.| o.O.+.;.l.l.P.!.;X^.I.L.K.K.Y.K.x.l.:.-.&.o.| }  .X.} j.E.D.r.8.r.u.u.a.s.u.8.w.N z z z ",
"G f E H H  .L.,.-.-.@.:.7.2.5.O.e o.O.O.@.@.@.l.x.x.U.:XqXeX,X<X>X>X.XY.5.2.$.$.#.H H H G f s : f.E.4XoXg.i.C.e.s.p.N z u u u u ",
"g h d G X.>.>.>.@.,.c.>.@.-.B.9 9 L 9 9 { } O.@.;.x.x.v.U.;X,X-XT.}.7.2.2.$.W H G G s , : : : @ ~ E.e.9.t.M.` w.p.p.` m y u z k ",
"s s s K Y o.t @.c.:X=Xx.t ..@.} } 9 { { L L { | } +.;.;.k.N.P.P.V.n.b.h.0.( ( ^ I T J ^ ! D R ! t.t.8.! [ ).[ ) M m V N c c j o ",
"d Z 2 s 0 0 r +.x.c.x.>.>.t ..r L 9 f o.$.W K | K K o.Y *.j.j.V.m.m.M.q.q.8.8.8.u.u.i.f.w.D D ~ t.t.! ` ` ` ) R D v c c c l v z ",
", , 3 3 2 9 e r @.t r r r r X.9 3 3 3 3 g _ f s 8 Z F J J J ^ 0.*.*.Y T I I P U 9.g.g.U p $ p l 8.i.e.e.U M a a u z k B j j l j ",
"= = - 3 f } t t r 9 q q w r ..w = = - h g g f 3 , , , 5 Z Z Z J J Y T S S A A S P 9.g.y.A . . $ E.a.e.N x l p x m ` B e.k y o y ",
"= - - - ; 1 1 ; 8 ; 0 T 1 3 ..>.3 * d * & 3 3 e 2 , < , C 5 C Z 6 S I P S S 7 Z D b b 7 n b # a.4Xy.B c l i x i u u y O k y j j ",
"  = 1 ; ; ; ; ; ; 5 5 L Y 1 3 ....3     & - e t 9 2 , > > > d Z F Z A U S S C d h > # $ o l y.oXs.B v x l y i X O X O O z y O O ",
"= = 5 5 1 0 ; ; ; 6 q q L +.- & 3 w 3     , 8 9 , = : @ @ @ @ s 0 6 7 7 P S 7 > d # $ O 4 y.y.9.m D D l u l j j k k N k B O O % ",
"+.+ : , = + + + + 6 z.S > Z L F , & & s *.T 8 : : @ @ @ $ . . # = + 7 n 6 7 7 7 # # T 8.9.B B v x l i y M a X O O O O 4 0XtXZ.Z."
};
