/* XPM */
static char *player[] = {
/* columns rows colors chars-per-pixel */
"12 12 122 2 ",
"   c #35231E",
".  c #232223",
"X  c #232324",
"o  c #242324",
"O  c #242424",
"+  c #252525",
"@  c #272727",
"#  c #2C2D2D",
"$  c #2D2D2D",
"%  c #2E2E2E",
"&  c #392520",
"*  c #3A2521",
"=  c #3B2621",
"-  c #382722",
";  c #3C2621",
":  c #3B3B3B",
">  c #592B1E",
",  c #7C280E",
"<  c #712912",
"1  c #6F301D",
"2  c #73301C",
"3  c #7D311A",
"4  c #7D341D",
"5  c #432D27",
"6  c #442E28",
"7  c #462F29",
"8  c #47302A",
"9  c #47322B",
"0  c #48312B",
"q  c #49322B",
"w  c #4A322B",
"e  c #4E3128",
"r  c #4B332C",
"t  c #4B342D",
"y  c #4B352E",
"u  c #4C342C",
"i  c #4C342D",
"p  c #4D352E",
"a  c #4E352E",
"s  c #4F362E",
"d  c #4F372F",
"f  c #5E3226",
"g  c #563429",
"h  c #55342A",
"j  c #53352C",
"k  c #4A3731",
"l  c #4E3933",
"z  c #503730",
"x  c #513730",
"c  c #503830",
"v  c #513830",
"b  c #523830",
"n  c #523930",
"m  c #533931",
"M  c #523A32",
"N  c #543A32",
"B  c #553B32",
"V  c #563B33",
"C  c #573C33",
"Z  c #573C34",
"A  c #583C34",
"S  c #583D34",
"D  c #593D35",
"F  c #593E35",
"G  c #5A3F35",
"H  c #5B3F36",
"J  c #6C3221",
"K  c #793622",
"L  c #5D4037",
"P  c #5D4137",
"I  c #5D4138",
"U  c #5E4138",
"Y  c #5F4238",
"T  c #5F4339",
"R  c #604339",
"E  c #65463C",
"W  c #66473C",
"Q  c #66473D",
"!  c #6A4A3F",
"~  c #6D4C40",
"^  c #725043",
"/  c #80290F",
"(  c #942D0D",
")  c #972D0D",
"_  c #802D14",
"`  c #882E12",
"'  c #8E3013",
"]  c #8D3014",
"[  c #81321A",
"{  c #82321A",
"}  c #80361F",
"|  c #8C351B",
" . c #913417",
".. c #973416",
"X. c #9F3312",
"o. c #9A3314",
"O. c #993617",
"+. c #993719",
"@. c #9B3718",
"#. c #943B1F",
"$. c #AD320C",
"%. c #B1350F",
"&. c #A03412",
"*. c #A03413",
"=. c #A13413",
"-. c #A53412",
";. c #AD3611",
":. c #B03711",
">. c #B13711",
",. c #B33610",
"<. c #B83810",
"1. c #B83811",
"2. c #B83911",
"3. c #B93911",
"4. c #BB3A12",
"5. c #BC3A12",
"6. c #BD3A12",
"7. c #BD3B12",
"8. c #BE3B12",
"9. c #903A20",
"0. c #913A20",
"q. c #923B20",
/* pixels */
"H Z ^ d d d b d b E b H ",
"V C I C h , , h x x &   ",
"b 0 b e ( %.$.) j b & ; ",
"~ & r _ %.<.8.<.4 H ! I ",
"V   6 &. .f J J > V H I ",
"0 d C &.%.&.:.;. .H H I ",
"0 0 l < ` <.8.8...t b P ",
"E R R ' =.<.8.<...d r E ",
"A H j X.-.| +.+.3 7 8 P ",
"5 H b X.o.2 [ [ 1 P H I ",
"& 9 k } 9.q.q.q.K l t b ",
"O X @ @ % % % : # @ O X "
};
