/* XPM */
static char *wall[] = {
/* columns rows colors chars-per-pixel */
"12 12 130 2 ",
"   c #580B0B",
".  c #5C0808",
"X  c #5A0D0D",
"o  c #5C0F0F",
"O  c #4F1B1B",
"+  c #5A1414",
"@  c #5B1515",
"#  c #5B1616",
"$  c #5D1414",
"%  c #5C1616",
"&  c #561F1F",
"*  c #5C1818",
"=  c #6C0505",
"-  c #6E0505",
";  c #610909",
":  c #610B0B",
">  c #630B0B",
",  c #640B0B",
"<  c #630E0E",
"1  c #640C0C",
"2  c #670C0C",
"3  c #660D0D",
"4  c #6C0909",
"5  c #690C0C",
"6  c #700404",
"7  c #700606",
"8  c #7B0000",
"9  c #7D0000",
"0  c #7E0000",
"q  c #770E0E",
"w  c #611313",
"e  c #661010",
"r  c #611414",
"t  c #621717",
"y  c #641717",
"u  c #661616",
"i  c #661717",
"p  c #681313",
"a  c #6E1111",
"s  c #6C1212",
"d  c #6A1515",
"f  c #6B1515",
"g  c #6D1616",
"h  c #611818",
"j  c #621A1A",
"k  c #641A1A",
"l  c #641D1D",
"z  c #6C1818",
"x  c #6B1E1E",
"c  c #781313",
"v  c #7B1414",
"b  c #701A1A",
"n  c #731A1A",
"m  c #731B1B",
"M  c #761A1A",
"N  c #751C1C",
"B  c #7C1C1C",
"V  c #462525",
"C  c #502222",
"Z  c #512323",
"A  c #552222",
"S  c #522424",
"D  c #522525",
"F  c #532525",
"G  c #532626",
"H  c #542626",
"J  c #592727",
"K  c #5E2626",
"L  c #512E2E",
"P  c #582828",
"I  c #5D2A2A",
"U  c #5F2C2C",
"Y  c #4C3939",
"T  c #533333",
"R  c #583131",
"E  c #622222",
"W  c #652626",
"Q  c #692323",
"!  c #692626",
"~  c #6C2525",
"^  c #672D2D",
"/  c #6F2828",
"(  c #6A2D2D",
")  c #6C2E2E",
"_  c #722323",
"`  c #800000",
"'  c #820000",
"]  c #840000",
"[  c #850000",
"{  c #860000",
"}  c #810606",
"|  c #890000",
" . c #8A0000",
".. c #8D0000",
"X. c #8E0000",
"o. c #800F0F",
"O. c #840F0F",
"+. c #890808",
"@. c #8B0808",
"#. c #8B0909",
"$. c #8C0909",
"%. c #8F0808",
"&. c #8E0909",
"*. c #880E0E",
"=. c #890F0F",
"-. c #900000",
";. c #920000",
":. c #930000",
">. c #940000",
",. c #960000",
"<. c #9A0000",
"1. c #9D0000",
"2. c #9E0000",
"3. c #920808",
"4. c #910E0E",
"5. c #9A0909",
"6. c #821010",
"7. c #841212",
"8. c #821717",
"9. c #8D1010",
"0. c #881414",
"q. c #8C1717",
"w. c #811818",
"e. c #821919",
"r. c #851818",
"t. c #861A1A",
"y. c #881A1A",
"u. c #941515",
"i. c #A10606",
"p. c #812020",
/* pixels */
"p.r.R y.e.r.M ) y.8.e.x ",
"c = V 0 7 = . E 7 = 7 o ",
"=.o.q ^ =.7.6.7.q.v / 9.",
"1 1   ^ 5 1 5 1 . o W 1 ",
"u.#.3.#.@.^ 5.%.+.#.#.5 ",
"Q + j % @ L u $ @ @ % & ",
"i.>.~ <.>.;.;.W i.2.<.>.",
"u w I u g w j J b b g k ",
"4.| ..] ] 0 _ ' ] ' ..4 ",
"N g z & g g ! g k l 5 j ",
"] ] 0 A ..0 0 8 . B ] 0 ",
"G G A Y P A G Z V R G G "
};
